<svg xmlns="http://www.w3.org/2000/svg" viewBox="0 0 290 108" width="290" height="108" role="img" aria-label="SousEye (live) — cook from your kitchen">
  <defs><clipPath id="clip-souseye"><path d="M18.9,9.0 Q18.9,9.0 35.2,8.1 Q51.5,7.2 67.4,7.7 Q83.3,8.3 99.0,8.3 Q114.7,8.3 130.1,8.5 Q145.6,8.8 160.7,7.8 Q175.8,6.9 192.2,6.9 Q208.6,6.9 223.8,8.2 Q238.9,9.4 260.2,14.4 Q281.6,19.3 281.6,30.6 Q281.7,41.8 282.2,53.3 Q282.7,64.8 275.8,82.5 Q268.8,100.3 253.4,99.7 Q238.1,99.1 222.1,100.0 Q206.1,100.9 191.0,100.6 Q175.9,100.3 160.4,100.7 Q144.9,101.0 128.7,100.7 Q112.5,100.4 98.0,99.9 Q83.4,99.4 67.2,99.5 Q51.1,99.5 29.3,94.4 Q7.5,89.2 7.4,77.6 Q7.2,66.0 7.0,54.7 Q6.7,43.5 12.8,26.2 Z"/></clipPath></defs>
  <g transform="rotate(0.6 145.0 54.0)">
    <g clip-path="url(#clip-souseye)">
      <rect x="-6" y="-6" width="302" height="120" fill="#faf6ee"/>
      
  <filter id="grainssouseye"><feTurbulence type="fractalNoise" baseFrequency="0.9" numOctaves="2" result="n"/>
    <feColorMatrix in="n" type="matrix" values="0 0 0 0 0  0 0 0 0 0  0 0 0 0 0  0 0 0 0.05 0"/>
  </filter>
  <rect width="290" height="108" filter="url(#grainssouseye)" fill="#1c1a17" opacity="0.5"/>
    </g>
    <path d="M21.0,8.8 Q21.0,8.8 35.5,8.0 Q50.0,7.3 65.8,8.2 Q81.6,9.2 97.1,8.1 Q112.7,7.0 128.5,7.9 Q144.2,8.8 159.8,9.1 Q175.4,9.4 191.2,8.9 Q207.0,8.4 222.4,7.9 Q237.9,7.4 260.5,14.4 Q283.0,21.4 282.2,31.8 Q281.3,42.2 281.0,53.4 Q280.8,64.5 275.2,82.3 Q269.7,100.1 254.3,99.8 Q239.0,99.6 222.7,99.9 Q206.5,100.2 191.2,99.9 Q175.8,99.6 161.1,99.9 Q146.3,100.2 129.4,100.8 Q112.4,101.3 98.1,100.5 Q83.8,99.7 68.2,99.3 Q52.6,98.9 30.9,93.0 Q9.2,87.1 9.1,76.5 Q9.0,65.8 9.2,54.0 Q9.3,42.1 15.2,25.4 Z" fill="none" stroke="#1c1a17" stroke-width="2" opacity="0.75"/>
    <path d="M59.3,54.0 Q59.3,54.0 58.1,58.1 Q56.9,62.2 54.2,65.2 Q51.4,68.3 47.9,70.6 Q44.3,72.9 39.9,73.2 Q35.5,73.6 31.9,71.1 Q28.3,68.7 25.2,65.7 Q22.2,62.6 22.1,58.3 Q22.1,54.0 22.4,49.9 Q22.8,45.7 25.7,42.7 Q28.6,39.7 32.2,37.6 Q35.8,35.5 40.0,35.4 Q44.3,35.2 48.3,36.9 Q52.4,38.5 54.8,42.1 Q57.2,45.7 58.2,49.9 Z" fill="#0b3cbf" fill-opacity="0.15" stroke="#0b3cbf" stroke-width="2.4"/><path d="M38.4,50.0 Q38.4,50.0 38.0,50.9 Q37.7,51.8 37.1,52.5 Q36.5,53.1 35.7,53.6 Q34.9,54.1 34.0,54.1 Q33.0,54.2 32.2,53.8 Q31.3,53.4 30.9,52.5 Q30.4,51.7 30.2,50.9 Q29.9,50.0 30.1,49.1 Q30.3,48.2 30.9,47.5 Q31.4,46.7 32.2,46.2 Q33.0,45.7 34.0,45.9 Q34.9,46.0 35.7,46.5 Q36.5,46.9 37.2,47.5 Q38.0,48.1 38.2,49.0 Z" fill="none" stroke="#1c1a17" stroke-width="1.4" opacity="0.5"/><path d="M81.3 51.7Q80.8 51.5 80.5 51.4Q80.2 51.3 80.2 51.3Q80.3 51.2 80.2 51.1Q80.1 51 79.8 51Q79.3 50.7 78.9 50.2Q78.5 49.8 78.2 49.3Q77.9 48.8 77.8 48.6Q77.6 48.1 77.8 48Q77.9 47.9 78.2 47.8Q78.5 47.6 78.8 47.5Q79.1 47.5 79.3 48Q79.7 48.6 80.5 49Q81.3 49.4 82.3 49.5Q83.4 49.5 84.4 49.1Q85.2 48.7 85.3 48.2Q85.4 47.7 84.9 47Q84.9 46.7 84.7 46.6Q84.6 46.5 84.3 46.2Q84 46 83.5 45.5Q83.1 45.3 82.7 45.1Q82.4 45 82 44.8Q81.5 44.6 81 44.1Q80.4 43.7 79.9 43.2Q79.4 42.7 79.1 42.3Q78.7 41.9 78.5 41.1Q78.4 40.4 78.5 39.5Q78.6 38.7 79 38Q79.1 37.6 79.6 37Q80 36.4 80.5 35.8Q81.1 35.1 81.6 34.6Q82.1 34.1 82.4 33.9Q82.6 33.6 82.9 33.4Q83.1 33.2 83.1 33.2Q83.2 33 83.2 33Q83.3 33 83.3 33Q83.4 32.9 83.9 32.8Q84.4 32.6 85 32Q86.8 31.1 88.1 30.8Q89.4 30.4 90.1 30.4Q90.8 30.4 91.5 30.8Q92.1 31.1 92.6 31.6Q93 32.1 93.1 32.8Q93.3 33.5 92.9 34.4Q92.6 35.3 91.9 36.1Q91.3 36.9 90.6 37.3Q89.8 37.7 89.4 37.5Q88.9 37.3 88.9 36.8Q88.9 36.5 89.1 36.2Q89.3 35.9 90 35.1Q90.8 33.8 90.9 33.2Q91.1 32.6 90.5 32.5Q90.3 32.4 89.9 32.5Q89.4 32.6 88.9 32.7Q88.3 32.8 87.9 32.9Q87.5 33.1 87.5 33.1Q87.5 33.1 87.5 33.2Q87.5 33.3 87.4 33.2Q87.4 33.2 87 33.4Q86.7 33.6 86.2 33.9Q85.7 34.3 85.2 34.6Q84.7 34.9 84.4 35.1Q84 35.4 84 35.4Q83.9 35.7 83.4 36Q82.8 36.3 82.4 36.9Q81.9 37.6 81.4 38.5Q80.9 39.2 80.7 39.9Q80.5 40.6 80.7 41.1Q80.8 41.5 81.5 42.1Q82.2 42.6 83.2 43.2Q84.2 43.8 85 44.3Q85.8 44.9 86.4 45.4Q86.9 45.9 87.1 46.3Q87.4 46.8 87.5 47.4Q87.6 47.9 87.6 48.5Q87.6 49 87.4 49.4Q87.2 49.8 86.8 50.3Q86.4 50.8 86 50.8Q85.7 50.8 85.6 51Q85.4 51.1 85.2 51.2Q85 51.3 84.3 51.4Q83.6 51.5 82.8 51.6Q82 51.7 81.3 51.7Z M92.5 49.7Q92.1 49.7 91.9 49.6Q91.7 49.4 91.4 49.2Q90.9 48.6 90.6 48Q90.3 47.4 90.4 47Q90.5 46.7 90.4 46.5Q90.4 46.3 90.4 46.3Q90.3 46.2 90.3 46.1Q90.4 46.1 90.5 46Q90.6 46 90.6 45.7Q90.5 45.4 90.8 44.7Q91 44 91.4 43.3Q91.6 43 91.9 42.5Q92.3 42.1 92.7 41.6Q93.1 41.2 93.4 40.9Q94.1 40.3 94.7 39.9Q95.3 39.6 95.9 39.5Q96.5 39.3 97 39.3Q97.5 39.3 98 39.8Q98.6 40.1 98.9 40.5Q99.2 41 99.2 41.7Q99.3 42.6 99.1 43.7Q98.9 44.9 97.7 46.5Q97 47.5 96.4 48Q95.7 48.6 94.9 49Q94.3 49.4 93.7 49.6Q93.1 49.7 92.5 49.7ZM95.3 46.5Q95.9 45.9 96.2 45.2Q96.5 44.5 96.9 43.6Q97 43.4 97 43Q97.1 42.6 97 42.2Q97 41.8 96.8 41.7Q96.5 41.6 96.2 41.6Q95.9 41.7 95.4 42.1Q94.6 42.8 93.9 43.8Q93.2 44.7 92.8 46.1Q92.6 46.9 92.9 47.3Q93.1 47.7 93.7 47.6Q94.4 47.4 95.3 46.5Z M107.3 49.9Q107 49.7 106.8 49.2Q106.6 48.7 106.4 48Q106.3 47.8 106.4 47.5Q106.4 47.2 106.3 47Q106.3 47.2 106.1 47.5Q105.9 47.8 105.7 47.9Q105.6 48 105.2 48.3Q104.8 48.7 104.4 48.9Q103.5 49.4 102.8 49.4Q102.2 49.4 101.6 48.7Q101.2 48.4 100.9 47.9Q100.7 47.3 100.9 46.6Q100.9 45.6 101.1 44.6Q101.4 43.7 102.1 42.1Q102.7 41 103 40.4Q103.3 39.8 103.4 39.6Q103.8 39.5 104.3 39.7Q104.8 39.8 104.8 40.2Q105 40.5 104.8 41.2Q104.6 42 104.1 42.9Q103.7 43.9 103.4 44.8Q103.1 45.7 103 46.4Q102.9 47 103.3 47.1Q103.6 47.3 104.1 47.1Q104.7 46.9 105.4 46Q106.1 45.2 106.8 43.4Q107.1 42.8 107.2 42.4Q107.3 41.9 107.3 41.4Q107.3 41.1 107.4 40.7Q107.6 40.4 108 40.2Q108.1 40.1 108.3 39.9Q108.5 39.8 108.5 40L109 39.9Q109.1 39.9 109.2 40.1Q109.3 40.3 109.4 40.5Q109.8 40.7 109.7 41.5Q109.6 42.4 109 43.9Q108.4 45 108.3 45.6Q108.1 46.2 108.1 46.8Q108.1 47.3 108.2 47.7Q108.3 48 108.7 48.4Q109 48.6 109.1 49Q109.1 49.4 109.1 49.7Q109 50 108.7 50.1Q108.3 50.2 107.9 50.2Q107.5 50.1 107.3 49.9Z M112.5 50.1Q111.7 49.8 111.3 49.4Q110.8 49 110.8 48.7Q110.9 48.5 111 48.4Q111.1 48.2 111.6 48.2Q112.1 48.3 113.1 48.5Q113.4 48.5 113.7 48.4Q114.1 48.4 114.4 48.3Q114.8 48.2 114.9 48.1Q115 48.1 115 48Q114.9 47.9 114.8 47.8Q114.7 47.7 114.5 47.6Q114.4 47.6 114.3 47.6Q114.2 47.4 114 47.3Q113.8 47.1 113.5 47Q112.9 46.5 112.4 46.1Q112 45.7 112.1 45.5Q112.1 45.4 112.1 45.4Q112.1 45.4 112.1 45.4Q111.9 45.4 111.7 44.8Q111.5 44.3 111.5 43.8Q111.5 43.3 111.7 42.8Q111.9 42.2 112.3 41.7Q112.7 41.2 113.1 40.8Q113.6 40.3 114.2 39.8Q114.9 39.3 115.6 38.9Q116.3 38.5 117.1 38.3Q117.5 38.2 118 38.2Q118.5 38.2 118.7 38.3Q119 38.3 119.3 38.5Q119.6 38.7 119.9 39.1Q120.1 39.4 120.3 39.7Q120.3 40 120.2 40.5Q120.2 41 120.1 41.3Q120.1 41.6 119.9 41.6Q119.9 41.6 119.8 41.7Q119.7 41.7 119.7 41.8Q119.7 42.1 119.3 42.5Q118.8 42.8 118.3 43Q117.9 43.2 117.7 42.9Q117.6 42.8 117.5 42.7Q117.4 42.6 117.2 42.5Q117.2 42.5 117.2 42.4Q117.1 42.3 117.1 42.1Q117.1 42 117.2 41.9Q117.3 41.8 117.3 41.8Q117.6 41.6 117.8 41.3Q118 40.9 118.1 40.7Q118.2 40.4 118.2 40.2Q118.2 40.1 118.2 40Q118.1 40 117.9 40Q117.7 40.1 117.2 40.3Q116.7 40.5 116.2 40.8Q115.7 41.1 115.4 41.4Q115.3 41.6 115.3 41.6Q115.2 41.7 115.1 41.7Q115.1 41.6 115 41.7Q114.8 41.9 114.6 42.2Q114.4 42.5 114.2 42.8Q113.9 43.1 113.8 43.3Q113.8 43.4 113.7 43.7Q113.6 43.9 113.6 44.1Q113.6 44.4 113.8 44.6Q114 44.8 114.5 45.2Q115.5 46 116 46.4Q116.5 46.8 116.8 47.1Q117 47.4 117 47.6Q117.5 48.5 117.2 49.1Q116.9 49.6 116.1 50Q115.9 50.1 115.2 50.2Q114.5 50.3 113.8 50.3Q113 50.3 112.5 50.1Z M124.5 51Q123.7 50.9 122.9 50.4Q122.1 49.8 121.3 49.3Q120.9 48.8 120.6 48.3Q120.3 47.7 120.2 46.8Q120.1 46.3 120.2 45.5Q120.3 44.6 120.5 43.8Q120.8 42.9 121 42.4Q121.3 41.6 121.9 40.7Q122.4 39.8 122.9 39Q123.4 38.1 123.7 37.6Q123.9 37.4 123.9 37.4Q123.9 37.4 123.9 37.4Q123.9 37.3 124.2 36.7Q124.5 36.1 124.7 35.7Q125.1 35.2 125.2 34.9Q125.2 34.7 125.1 34.5Q125 34.4 125.3 34Q125.6 33.7 126.1 33.3Q126.6 32.8 127.3 32.5Q128 31.9 128.6 31.9Q129.2 31.9 129.3 32.2Q129.3 32.3 129.7 32.2Q130 32.2 130.4 32.1Q130.8 32 131.2 31.9Q131.3 31.8 131.8 31.7Q132.4 31.6 133.1 31.5Q133.4 31.5 133.8 31.5Q134.2 31.5 134.6 31.4Q134.9 31.4 134.9 31.4Q135.1 31.4 135.4 31.6Q135.7 31.8 136 32.3Q136.2 32.8 135.7 33.2Q135.2 33.5 134.1 33.6Q133.3 33.7 132.7 33.8Q132.2 33.9 131.7 34Q131.1 34.1 130.1 34.3Q129.4 34.4 128.9 34.6Q128.5 34.7 128.1 35Q127.8 35.2 127.4 35.9Q127.2 36 126.9 36.6Q126.6 37.2 126.2 37.8Q125.5 38.9 125 39.5Q124.6 40.1 124.7 40.2Q124.7 40.2 125.1 40.3Q125.4 40.4 125.5 40.4Q125.8 40.3 126.2 40.2Q126.6 40.2 126.9 40.1Q128.6 39.7 129.5 39.4Q130.4 39.2 130.8 39.1Q131.2 39 131.5 39Q131.9 38.7 132.3 39Q132.7 39.3 132.8 39.7Q133 40.2 132.8 40.5Q132.7 40.8 132 41Q131.4 41.2 130.2 41.5Q129.1 41.7 127.2 42.2Q125.7 42.7 124.7 42.8Q123.7 42.9 123.8 42.3Q123.6 42.2 123.3 42.5Q123.1 42.9 122.9 43.5Q122.7 44 122.5 44.7Q122.4 45.4 122.3 46Q122.3 46.6 122.4 46.9Q122.6 47.5 123.1 47.9Q123.5 48.4 124.5 48.7Q125 48.7 125.6 48.7Q126.1 48.8 126.8 48.5Q128.4 48.2 129.2 47.9Q129.9 47.6 130.1 47.5Q130.3 47.4 130.4 47.3Q130.4 47.2 130.6 47.2Q130.5 47.4 130.6 47.2Q130.8 47.1 131.1 46.8Q131.6 46.4 132.1 46.3Q132.7 46.1 133.1 46.1Q133.5 46.1 133.5 46.3Q133.7 46.6 133.4 47.1Q133.1 47.7 132.4 48.3Q131.8 49 130.8 49.5Q129.4 50.3 127.6 50.6Q125.9 50.9 124.5 51Z M135.1 55.7Q134.2 55.9 133.4 55.8Q132.5 55.7 131.9 55.3Q131.2 55 131.1 54.5Q131 54 131.3 53.8Q131.5 53.5 131.9 53.4Q132.3 53.4 132.4 53.5Q132.6 53.7 133.2 53.9Q133.7 54.2 134.4 54Q135 53.9 135.6 53.4Q136.1 52.9 136.5 52.3Q136.8 52 137.3 51.1Q137.8 50.3 138.4 49.2Q139 48.2 139.4 47.3Q139.4 47 139.6 46.7Q139.7 46.4 139.8 46.2Q140 45.9 140.1 45.6Q140.3 45.3 140.3 45.2Q140.3 45 140.5 44.6Q140.8 44.2 141 43.8Q141.1 43.4 141.4 42.6Q141.7 41.7 141.9 41.2Q142.3 40.6 142.5 40.2Q142.7 39.8 142.9 39.7Q143.2 39.5 143.4 39.5Q143.6 39.5 143.9 39.7Q144.2 40 144.4 40.3Q144.5 40.6 144.5 41.1Q144.4 41.6 144 42.4Q143.7 43 143.5 43.6Q143.2 44.1 143.1 44.3Q142.9 44.6 142.7 45Q142.6 45.4 142.4 45.8Q141.9 46.9 141.6 47.6Q141.2 48.3 140.9 48.9Q140.6 49.5 140.3 50.3Q139.7 51.3 139.1 52.2Q138.5 53.2 137.8 54Q137.5 54.2 137 54.6Q136.6 55 136 55.3Q135.5 55.6 135.1 55.7ZM138.7 49.3Q138.3 49.2 137.9 48.7Q137.4 48.3 137.1 47.7Q136.8 47.2 136.9 46.9Q136.9 46.8 136.9 46.7Q136.9 46.6 136.9 46.6Q136.7 46.6 136.6 46.2Q136.5 45.7 136.4 45Q136.4 44.3 136.4 43.5Q136.4 42.7 136.5 42Q136.6 41.5 136.6 40.9Q136.6 40.4 136.6 40Q136.6 39.6 136.7 39.3Q136.9 39.1 137 39Q138 38.6 138.4 39.5Q138.8 40.3 138.7 42.4Q138.6 43.5 138.6 44.5Q138.6 45.6 138.9 46.4Q139.1 47.1 139.6 47.4Q139.8 47.5 139.7 47.8Q139.7 48.2 139.5 48.5Q139.3 48.8 139.1 49.1Q138.9 49.3 138.7 49.3Z M150.4 49.3Q149.6 49.8 148.8 49.9Q147.9 49.9 147.1 49.6Q146.3 49.3 145.8 48.6Q145.5 48.2 145.3 47.4Q145 46.6 145.2 45.2Q145.3 44 146 42.8Q146.6 41.5 147.5 40.6Q148.4 39.6 149.4 39.3Q149.8 39.1 150.2 39Q150.6 39 151.2 39Q151.8 39.1 152.3 39.3Q152.7 39.6 153 39.8Q153.4 40.3 153.5 40.7Q153.7 41.1 153.7 41.5Q153.5 42.3 152.8 43.3Q152.2 44.3 151 44.8Q150.5 45 149.8 45Q149.1 45 148.2 44.8Q147.6 44.6 147.4 44.9Q147.2 45.2 147.2 46.1Q147.2 46.8 147.4 47.2Q147.6 47.6 148.1 47.7Q148.7 47.9 149 47.8Q149.3 47.8 149.7 47.5Q150 47.3 150.2 47.2Q150.4 47.1 150.6 47Q150.7 46.8 150.9 46.7Q151.1 46.5 151.2 46.5Q151.3 46.4 151.5 46.4Q151.7 46.4 152 46.7Q152.2 46.9 152.3 47.1Q152.4 47.3 152.1 47.7Q151.9 48.1 151.4 48.5Q151 48.9 150.4 49.3ZM150.1 43.2Q150.4 43.1 150.7 42.8Q151.1 42.5 151.4 42.1Q151.7 41.8 151.7 41.6Q151.7 41.2 151.3 41Q150.9 40.8 150.2 40.9Q150 41 149.6 41.3Q149.3 41.5 149 41.9Q148.6 42.2 148.4 42.5Q148.2 42.8 148.2 43Q148.3 43.1 148.6 43.2Q149 43.3 149.4 43.3Q149.9 43.2 150.1 43.2Z" fill="#1c1a17"/><path d="M79.6 76.9Q79.6 76.9 79.5 77Q79.5 77 79.4 77Q79.4 77 79.3 77.1Q79.3 77.1 79.3 77.2Q79.2 77.2 79.2 77.3Q79.2 77.3 79.2 77.4Q79.1 77.5 78.9 77.5Q78.8 77.6 78.7 77.6Q78.6 77.7 78.5 77.7Q78.4 77.8 78.3 78H78.3Q78.2 78 78.1 78Q78 78 77.9 78.1Q77.8 78.2 77.6 78.2Q77.5 78.2 77.4 78.2Q77.4 78.2 77.3 78.2Q77.2 78.2 77.2 78.2Q77.1 78.1 77.1 78.1Q77 78.1 77 78.1Q76.9 78.1 76.8 78.1Q76.7 78.1 76.6 78.1Q76.6 78.1 76.5 78.1Q76.4 78.1 76.3 78.1Q76.3 78 76.2 78Q76.2 77.9 76.2 77.8Q76.2 77.8 76.2 77.8Q76.1 77.8 76.1 77.8Q76.1 77.8 76.1 77.8Q75.9 77.8 75.8 77.8Q75.6 77.7 75.5 77.6Q75.4 77.5 75.3 77.4Q75.2 77.3 75.1 77.2Q74.9 77 74.9 76.9Q74.8 76.7 74.7 76.6Q74.5 76.2 74.5 75.9Q74.4 75.6 74.4 75.3Q74.4 75.2 74.4 75.1Q74.5 75 74.5 75Q74.5 75 74.5 74.9Q74.6 74.9 74.6 74.9Q74.6 74.9 74.6 74.9Q74.7 74.9 74.7 74.8Q74.7 74.8 74.6 74.7Q74.6 74.6 74.6 74.6Q74.6 74.5 74.6 74.5Q74.6 74.4 74.7 74.4Q74.7 74.3 74.7 74.2Q74.8 74 74.8 73.8Q74.9 73.7 74.9 73.5Q75 73.4 75.1 73.4Q75.2 73.4 75.2 73.4Q75.3 73.5 75.4 73.5Q75.4 73.5 75.5 73.4L75.5 73.4Q75.5 73.3 75.5 73.3Q75.4 73.3 75.4 73.3Q75.3 73.3 75.3 73.3Q75.2 73.3 75.2 73.2Q75.2 73.2 75.3 73.2Q75.3 73.1 75.3 73.1Q75.4 73.1 75.4 73.1Q75.5 73.1 75.5 73.1Q75.5 73 75.6 73Q75.6 72.9 75.6 72.9Q75.6 72.9 75.7 72.8Q75.7 72.8 75.8 72.8Q75.9 72.8 75.9 72.8Q76 72.8 76.1 72.8Q76.2 72.8 76.2 72.8Q76.3 72.8 76.4 72.7L76.3 72.7Q76.4 72.6 76.4 72.6Q76.5 72.6 76.5 72.6Q76.6 72.5 76.6 72.5Q76.7 72.5 76.8 72.5Q76.9 72.5 77.1 72.6Q77.3 72.6 77.5 72.6Q77.5 72.6 77.6 72.6Q77.7 72.6 77.8 72.6Q77.9 72.6 78 72.6Q78.1 72.7 78.2 72.8L78.2 72.8Q78.2 72.8 78.3 72.7Q78.3 72.7 78.3 72.7Q78.4 72.7 78.4 72.7Q78.4 72.7 78.4 72.8Q78.5 72.8 78.5 72.8Q78.6 72.8 78.6 72.9Q78.7 72.9 78.7 73Q78.8 73 78.8 73Q78.9 73 78.9 73Q79 73 79 73.1V73.2Q79.1 73.4 79.2 73.4Q79.3 73.5 79.4 73.6Q79.5 73.7 79.5 73.8Q79.5 73.9 79.5 74.1Q79.5 74.3 79.5 74.5Q79.5 74.7 79.4 74.8Q79.3 74.9 79.1 75Q78.9 75.1 78.7 75.1L78.3 75.1Q78.3 75 78.2 74.9Q78.1 74.7 78 74.6Q78 74.5 77.9 74.3Q77.8 74.2 77.8 74.1Q77.8 74.1 77.8 74Q77.9 73.9 77.9 73.8Q77.8 73.7 77.8 73.7Q77.7 73.6 77.6 73.6Q77.5 73.5 77.4 73.5Q77.4 73.5 77.3 73.5Q77.1 73.5 77 73.5Q76.8 73.5 76.7 73.6Q76.7 73.5 76.7 73.5Q76.7 73.5 76.6 73.5Q76.5 73.5 76.4 73.5Q76.3 73.6 76.2 73.7Q76.1 73.7 76 73.8Q75.9 73.9 75.9 74Q75.8 74 75.8 74.1Q75.7 74.3 75.6 74.4Q75.6 74.5 75.5 74.6Q75.4 74.7 75.3 74.7Q75.4 74.7 75.4 74.9Q75.4 75 75.4 75.1Q75.5 75.3 75.5 75.4Q75.5 75.5 75.5 75.6Q75.5 75.7 75.5 75.8Q75.6 75.9 75.6 76.1Q75.6 76.2 75.5 76.2Q75.5 76.3 75.5 76.4Q75.5 76.5 75.5 76.5Q75.6 76.6 75.6 76.6Q75.7 76.6 75.8 76.7Q75.8 76.7 75.8 76.8Q75.8 76.9 75.9 76.9Q75.9 77 76 77H76L76.1 77Q76.2 77 76.2 77.2Q76.2 77.3 76.3 77.4Q76.3 77.3 76.3 77.3Q76.3 77.3 76.3 77.3Q76.3 77.2 76.4 77.2Q76.4 77.2 76.4 77.2Q76.5 77.2 76.5 77.2Q76.6 77.3 76.6 77.3Q76.6 77.3 76.7 77.4Q76.7 77.4 76.8 77.4Q76.9 77.4 77 77.4Q77.1 77.3 77.2 77.3Q77.3 77.2 77.4 77.2Q77.5 77.1 77.6 77.1Q77.9 77.1 78 76.9Q78.2 76.8 78.4 76.6Q78.4 76.5 78.5 76.4Q78.6 76.3 78.6 76.2Q78.7 76.2 78.7 76.2Q78.8 76.2 78.9 76.2Q78.9 76.2 78.9 76.2Q78.9 76.2 79 76.2Q79 76.2 79 76.2Q79.1 76.2 79.1 76.2Q79.1 76.3 79 76.3Q79 76.3 79 76.4Q78.9 76.4 78.9 76.4Q78.9 76.5 78.9 76.5L78.9 76.5Q79 76.5 79.1 76.5Q79.2 76.6 79.3 76.6Q79.4 76.7 79.5 76.7Q79.6 76.8 79.6 76.9ZM79.2 77.2Q79.2 77.2 79.1 77.1Q79.1 77.1 79.1 77.1Q79.1 77.1 79 77.2Q79 77.2 79 77.2Q79 77.3 79 77.3Q79.1 77.3 79.1 77.3Q79.1 77.3 79.1 77.3Q79.2 77.2 79.2 77.2Z M86 75.6Q86 75.7 86 75.8Q85.9 75.9 85.9 75.9Q85.9 76 85.9 76Q85.8 76 85.8 76Q85.8 76.1 85.9 76.1Q85.9 76.2 85.9 76.3Q85.9 76.3 85.9 76.3Q85.9 76.3 85.8 76.3Q85.8 76.3 85.8 76.3Q85.8 76.4 85.8 76.5Q85.8 76.6 85.8 76.7Q85.8 76.9 85.8 76.9Q85.7 77 85.7 77Q85.7 77 85.6 77Q85.6 77 85.6 77.1Q85.6 77.1 85.5 77.2Q85.5 77.3 85.4 77.4Q85.3 77.4 85.2 77.5Q85.1 77.5 85 77.5Q85 77.5 85 77.5Q85 77.6 85 77.6Q85 77.7 85 77.7Q85 77.8 85 77.8Q84.9 77.8 84.9 77.9Q84.8 77.9 84.7 78Q84.6 78 84.5 78.1Q84.4 78.2 84.3 78.2Q84.2 78.3 84.1 78.3Q84 78.3 84 78.3Q83.9 78.2 83.8 78.2Q83.7 78.2 83.7 78.2Q83.6 78.3 83.5 78.3Q83.5 78.3 83.4 78.3Q83.4 78.4 83.3 78.4Q83.2 78.4 83 78.3Q82.9 78.2 82.8 78.2Q82.7 78.2 82.6 78.1Q82.5 78.1 82.4 78.1Q82.4 78.1 82.3 78.1Q82.2 78 82.2 78Q82.1 77.8 81.9 77.7Q81.8 77.6 81.6 77.6Q81.4 77.5 81.3 77.4Q81.1 77.3 81 77.2Q81 77 80.9 76.9Q80.8 76.8 80.7 76.6Q80.6 76.5 80.5 76.3Q80.5 76.2 80.5 76Q80.5 75.9 80.5 75.8Q80.5 75.7 80.5 75.6Q80.6 75.5 80.6 75.4Q80.6 75.3 80.6 75.2V75.2Q80.6 75.1 80.6 75.1Q80.6 75.1 80.5 75.1Q80.5 75 80.5 75Q80.5 75 80.5 75Q80.5 75 80.5 75Q80.5 74.9 80.5 74.8Q80.5 74.8 80.6 74.6Q80.6 74.5 80.6 74.5Q80.7 74.4 80.7 74.3Q80.7 74.3 80.7 74.3Q80.8 74.3 80.8 74.2Q80.8 74.2 80.8 74.1Q80.8 74.1 80.8 74Q80.8 74 80.8 73.9Q80.8 73.9 80.8 73.9Q80.8 73.9 80.9 73.9Q80.9 73.9 80.9 73.9Q81 73.8 81 73.7Q81.1 73.6 81.1 73.5Q81.2 73.5 81.2 73.4Q81.3 73.3 81.4 73.3Q81.5 73.2 81.6 73.2Q81.7 73.1 81.8 73Q81.8 73 81.9 72.9Q82 72.9 82.1 72.9Q82.3 72.9 82.4 72.8Q82.5 72.8 82.7 72.7Q82.9 72.7 83.1 72.7Q83.3 72.6 83.6 72.6Q83.7 72.6 83.9 72.7Q84 72.7 84.2 72.8Q84.4 72.8 84.6 72.9Q84.7 73 84.8 73.1V73.1Q84.8 73.2 84.8 73.3Q84.8 73.3 84.8 73.4Q84.8 73.4 84.8 73.4Q84.8 73.4 84.8 73.4Q84.9 73.4 85 73.4Q85 73.4 85.1 73.4Q85.2 73.5 85.2 73.5Q85.3 73.6 85.4 73.6Q85.4 73.6 85.5 73.7Q85.5 73.8 85.6 73.9Q85.6 74 85.7 74.1Q85.7 74.2 85.8 74.3Q85.8 74.3 85.8 74.4Q85.9 74.5 85.9 74.6Q85.9 74.7 85.9 74.8Q86 74.9 86 75Q86 75.1 85.9 75.1Q85.9 75.2 85.8 75.3Q85.8 75.3 85.7 75.4Q85.7 75.4 85.7 75.5Q85.7 75.5 85.7 75.6Q85.7 75.6 85.8 75.6Q85.8 75.6 85.8 75.6Q85.8 75.6 85.8 75.6V75.6Q85.8 75.5 85.8 75.5Q85.8 75.5 85.8 75.4Q85.8 75.4 85.8 75.4Q85.8 75.3 85.8 75.3Q85.8 75.3 85.9 75.4Q85.9 75.4 85.9 75.5Q86 75.5 86 75.5Q86 75.6 86 75.6L86 75.6Q86 75.6 86 75.6Q86 75.6 86 75.6ZM85.5 75.7Q85.5 75.6 85.4 75.6Q85.3 75.6 85.2 75.6Q85.2 75.6 85.1 75.5Q85 75.5 85 75.5V75.4Q85 75.3 85 75.1Q84.9 75 84.9 74.8Q84.8 74.6 84.8 74.5Q84.7 74.3 84.7 74.2Q84.7 74.1 84.6 74Q84.6 73.9 84.6 73.9Q84.6 73.9 84.5 73.9Q84.4 73.9 84.4 73.9Q84.3 73.9 84.2 73.8Q84.1 73.8 84 73.7Q83.9 73.7 83.7 73.7Q83.5 73.7 83.3 73.7Q83.1 73.6 82.8 73.6Q82.5 73.6 82.3 73.8Q82 73.9 81.8 74.1Q81.6 74.4 81.5 74.6Q81.4 74.9 81.4 75.2Q81.4 75.3 81.4 75.5Q81.4 75.6 81.4 75.8Q81.4 76 81.5 76.1Q81.5 76.2 81.6 76.3V76.5Q81.6 76.5 81.7 76.5Q81.7 76.5 81.7 76.5Q81.8 76.5 81.8 76.5Q81.8 76.5 81.8 76.5Q81.9 76.7 82 76.8Q82.1 76.9 82.3 77Q82.4 77.1 82.5 77.2Q82.7 77.2 82.8 77.4Q82.8 77.4 82.9 77.4Q82.9 77.4 82.9 77.4Q83.1 77.4 83.3 77.4Q83.4 77.4 83.6 77.4Q83.8 77.4 83.9 77.3Q84.1 77.2 84.2 77.1Q84.2 77 84.3 76.9Q84.4 76.9 84.4 76.8Q84.5 76.8 84.5 76.7Q84.6 76.7 84.7 76.6Q84.7 76.6 84.8 76.5Q84.8 76.5 84.9 76.5Q84.9 76.4 84.9 76.4Q85 76.3 85 76.3Q85 76.3 85 76.2Q84.9 76.2 84.9 76.1Q84.9 76.1 85 76Q85 75.9 85 75.8Q85 75.8 85.1 75.7Q85.1 75.7 85.2 75.7Q85.3 75.7 85.3 75.7Q85.4 75.7 85.4 75.8Q85.5 75.7 85.5 75.7Z M92.4 75.6Q92.4 75.7 92.4 75.8Q92.4 75.9 92.3 75.9Q92.3 76 92.3 76Q92.3 76 92.3 76Q92.3 76.1 92.3 76.1Q92.3 76.2 92.3 76.3Q92.3 76.3 92.3 76.3Q92.3 76.3 92.3 76.3Q92.2 76.3 92.2 76.3Q92.2 76.4 92.2 76.5Q92.2 76.6 92.2 76.7Q92.2 76.9 92.2 76.9Q92.1 77 92.1 77Q92.1 77 92 77Q92 77 92 77.1Q92 77.1 92 77.2Q91.9 77.3 91.8 77.4Q91.7 77.4 91.6 77.5Q91.5 77.5 91.4 77.5Q91.4 77.5 91.4 77.5Q91.4 77.6 91.4 77.6Q91.4 77.7 91.4 77.7Q91.4 77.8 91.4 77.8Q91.3 77.8 91.3 77.9Q91.2 77.9 91.1 78Q91 78 90.9 78.1Q90.8 78.2 90.7 78.2Q90.7 78.3 90.5 78.3Q90.5 78.3 90.4 78.3Q90.3 78.2 90.2 78.2Q90.1 78.2 90.1 78.2Q90 78.3 90 78.3Q89.9 78.3 89.9 78.3Q89.8 78.4 89.7 78.4Q89.6 78.4 89.5 78.3Q89.3 78.2 89.2 78.2Q89.1 78.2 89 78.1Q88.9 78.1 88.9 78.1Q88.8 78.1 88.7 78.1Q88.6 78 88.6 78Q88.5 77.8 88.3 77.7Q88.2 77.6 88 77.6Q87.9 77.5 87.7 77.4Q87.6 77.3 87.5 77.2Q87.4 77 87.3 76.9Q87.2 76.8 87.1 76.6Q87 76.5 86.9 76.3Q86.9 76.2 86.9 76Q86.9 75.9 86.9 75.8Q86.9 75.7 86.9 75.6Q87 75.5 87 75.4Q87 75.3 87 75.2V75.2Q87 75.1 87 75.1Q87 75.1 87 75.1Q86.9 75 86.9 75Q86.9 75 86.9 75Q86.9 75 86.9 75Q86.9 74.9 86.9 74.8Q86.9 74.8 87 74.6Q87 74.5 87 74.5Q87.1 74.4 87.1 74.3Q87.1 74.3 87.2 74.3Q87.2 74.3 87.2 74.2Q87.2 74.2 87.2 74.1Q87.2 74.1 87.2 74Q87.2 74 87.2 73.9Q87.2 73.9 87.2 73.9Q87.3 73.9 87.3 73.9Q87.3 73.9 87.3 73.9Q87.4 73.8 87.4 73.7Q87.5 73.6 87.5 73.5Q87.6 73.5 87.7 73.4Q87.7 73.3 87.8 73.3Q87.9 73.2 88 73.2Q88.1 73.1 88.2 73Q88.3 73 88.3 72.9Q88.4 72.9 88.5 72.9Q88.7 72.9 88.8 72.8Q89 72.8 89.1 72.7Q89.3 72.7 89.5 72.7Q89.8 72.6 90 72.6Q90.1 72.6 90.3 72.7Q90.5 72.7 90.6 72.8Q90.8 72.8 91 72.9Q91.2 73 91.3 73.1V73.1Q91.3 73.2 91.2 73.3Q91.2 73.3 91.2 73.4Q91.2 73.4 91.2 73.4Q91.2 73.4 91.2 73.4Q91.3 73.4 91.4 73.4Q91.5 73.4 91.6 73.4Q91.6 73.5 91.6 73.5Q91.7 73.6 91.8 73.6Q91.8 73.6 91.9 73.7Q92 73.8 92 73.9Q92.1 74 92.1 74.1Q92.1 74.2 92.2 74.3Q92.2 74.3 92.3 74.4Q92.3 74.5 92.3 74.6Q92.3 74.7 92.4 74.8Q92.4 74.9 92.4 75Q92.4 75.1 92.3 75.1Q92.3 75.2 92.2 75.3Q92.2 75.3 92.2 75.4Q92.1 75.4 92.1 75.5Q92.1 75.5 92.1 75.6Q92.1 75.6 92.2 75.6Q92.2 75.6 92.2 75.6Q92.3 75.6 92.3 75.6V75.6Q92.3 75.5 92.2 75.5Q92.2 75.5 92.2 75.4Q92.2 75.4 92.2 75.4Q92.2 75.3 92.2 75.3Q92.3 75.3 92.3 75.4Q92.3 75.4 92.3 75.5Q92.4 75.5 92.4 75.5Q92.4 75.6 92.4 75.6L92.4 75.6Q92.4 75.6 92.4 75.6Q92.4 75.6 92.4 75.6ZM91.9 75.7Q91.9 75.6 91.8 75.6Q91.7 75.6 91.7 75.6Q91.6 75.6 91.5 75.5Q91.4 75.5 91.4 75.5V75.4Q91.4 75.3 91.4 75.1Q91.3 75 91.3 74.8Q91.3 74.6 91.2 74.5Q91.2 74.3 91.1 74.2Q91.1 74.1 91 74Q91 73.9 91 73.9Q91 73.9 91 73.9Q90.9 73.9 90.8 73.9Q90.7 73.9 90.6 73.8Q90.6 73.8 90.4 73.7Q90.3 73.7 90.1 73.7Q89.9 73.7 89.7 73.7Q89.5 73.6 89.2 73.6Q88.9 73.6 88.7 73.8Q88.4 73.9 88.2 74.1Q88 74.4 87.9 74.6Q87.8 74.9 87.8 75.2Q87.8 75.3 87.8 75.5Q87.8 75.6 87.8 75.8Q87.9 76 87.9 76.1Q87.9 76.2 88 76.3V76.5Q88.1 76.5 88.1 76.5Q88.1 76.5 88.2 76.5Q88.2 76.5 88.2 76.5Q88.2 76.5 88.3 76.5Q88.3 76.7 88.4 76.8Q88.6 76.9 88.7 77Q88.8 77.1 88.9 77.2Q89.1 77.2 89.2 77.4Q89.2 77.4 89.3 77.4Q89.3 77.4 89.4 77.4Q89.5 77.4 89.7 77.4Q89.9 77.4 90 77.4Q90.2 77.4 90.4 77.3Q90.5 77.2 90.6 77.1Q90.7 77 90.7 76.9Q90.8 76.9 90.8 76.8Q90.9 76.8 90.9 76.7Q91 76.7 91.1 76.6Q91.1 76.6 91.2 76.5Q91.2 76.5 91.3 76.5Q91.3 76.4 91.4 76.4Q91.4 76.3 91.4 76.3Q91.4 76.3 91.4 76.2Q91.4 76.2 91.4 76.1Q91.4 76.1 91.4 76Q91.4 75.9 91.4 75.8Q91.5 75.8 91.5 75.7Q91.6 75.7 91.6 75.7Q91.7 75.7 91.8 75.7Q91.8 75.7 91.9 75.8Q91.9 75.7 91.9 75.7Z M99.4 77.8Q99.4 77.9 99.4 77.9Q99.4 77.9 99.4 78Q99.3 78 99.3 78Q99.3 78 99.3 78.1Q99.3 78.1 99.3 78.2Q99.1 78.2 98.9 78.2Q98.6 78.2 98.4 78.2Q98.4 78.2 98.4 78.2Q98.3 78.2 98.3 78.2Q98.3 78.2 98.2 78.1Q98.2 78.1 98.2 78.1Q98.1 78.1 98.1 78.1Q98 78.1 97.9 78.1Q97.8 78.2 97.8 78.2Q97.7 78.2 97.7 78.3Q97.6 78.3 97.5 78.3Q97.4 78.3 97.2 78.2Q97.1 78.2 97 78.2Q96.9 78.2 96.7 78.1Q96.6 78.1 96.6 78Q96.5 77.9 96.5 77.8Q96.5 77.8 96.5 77.7Q96.5 77.7 96.5 77.6Q96.6 77.5 96.6 77.5Q96.6 77.4 96.6 77.4Q96.7 77.4 96.7 77.4Q96.8 77.5 96.8 77.5L96.9 77.5L96.9 77.4Q96.9 77.4 96.9 77.4Q96.9 77.3 96.8 77.3Q96.8 77.3 96.7 77.3Q96.7 77.3 96.7 77.3Q96.7 77.2 96.8 77.1Q96.8 77 96.8 77Q96.8 76.9 96.8 76.7Q96.7 76.6 96.7 76.5Q96.6 76.4 96.6 76.3Q96.5 76.2 96.4 76.2Q96.3 76.1 96.3 76Q96.3 75.9 96.2 75.9Q96.1 75.8 96.1 75.8Q96 75.7 95.9 75.7Q95.8 75.7 95.7 75.8Q95.5 75.9 95.4 76.1Q95.2 76.2 95.1 76.3Q95 76.4 95 76.5Q95 76.5 95 76.6Q95 76.6 95 76.7Q95 76.8 95 76.9Q95 76.9 94.9 77Q94.9 77.1 95 77.2Q95.1 77.2 95.1 77.2Q95.2 77.2 95.3 77.3Q95.4 77.3 95.5 77.3Q95.5 77.3 95.6 77.4Q95.7 77.4 95.7 77.5Q95.8 77.5 95.8 77.6Q95.8 77.6 95.8 77.7Q95.8 77.7 95.8 77.8Q95.8 77.8 95.7 77.8Q95.7 77.8 95.6 77.8Q95.6 77.8 95.6 77.9Q95.6 77.9 95.6 77.9Q95.3 77.9 95.1 78Q94.9 78 94.6 78.1Q94.5 78.1 94.4 78.1Q94.3 78.1 94.2 78.1Q94.1 78.1 94 78.1Q93.9 78.1 93.8 78.1Q93.7 78.2 93.6 78.2Q93.5 78.2 93.4 78.1Q93.3 78.1 93.2 78Q93.1 77.9 93.1 77.8Q93 77.7 93 77.6Q93 77.4 93.1 77.3Q93.2 77.2 93.3 77.2Q93.4 77.2 93.4 77.3Q93.4 77.3 93.4 77.3Q93.5 77.3 93.5 77.3Q93.5 77.3 93.5 77.2Q93.5 77.2 93.6 77.2Q93.6 77.1 93.7 77.1Q93.8 77.1 93.9 77Q94 77 94.1 76.8Q94.1 76.7 94.1 76.6Q94.2 76.4 94.2 76.3Q94.2 76.2 94.1 76.1Q94.1 76 94.1 75.9Q94.1 75.8 94.2 75.6Q94.2 75.5 94.2 75.3Q94.2 75 94.2 74.8Q94.1 74.5 94.1 74.3Q94.1 74.1 94.2 73.9Q94.2 73.7 94.2 73.5Q94.2 73.5 94.2 73.4Q94.2 73.3 94.1 73.3Q94.1 73.2 94.1 73.2Q94.1 73.1 94.1 73.1Q94.1 73 94.1 72.9Q94.1 72.7 94.1 72.6Q94.1 72.5 94.1 72.4Q94.1 72.3 94.1 72.2Q94.1 72.1 94.1 72Q94.1 71.9 94.1 71.8Q94.1 71.6 94 71.5Q93.9 71.4 93.8 71.4Q93.7 71.3 93.5 71.3Q93.4 71.3 93.3 71.3Q93.1 71.2 93.1 71.2Q93 71.1 93 71Q93 70.8 93.1 70.7Q93.1 70.6 93.2 70.6Q93.3 70.5 93.5 70.5Q93.6 70.5 93.7 70.5Q94.1 70.6 94.3 70.6Q94.5 70.7 94.6 70.7Q94.7 70.7 94.7 70.8Q94.7 70.8 94.7 70.8Q94.8 70.9 94.8 71.1Q94.8 71.3 94.8 71.5Q94.8 71.7 94.8 71.9Q94.9 72.1 94.9 72.2Q94.9 72.3 94.8 72.5Q94.8 72.6 94.8 72.8Q94.8 72.9 94.8 73Q94.8 73.2 94.9 73.3Q94.9 73.4 94.9 73.5Q94.9 73.6 94.9 73.7Q94.9 73.9 94.9 74Q94.9 74.1 94.9 74.3Q94.9 74.5 94.9 74.7Q94.9 74.9 94.9 75.1Q94.9 75.1 95 75.1Q95 75.1 95 75.1Q95.1 75.1 95.2 75Q95.3 75 95.3 74.9Q95.4 74.8 95.4 74.8Q95.5 74.7 95.6 74.6Q95.7 74.6 95.8 74.5Q95.9 74.4 96 74.3Q96.1 74.1 96.2 74Q96.2 74 96.4 73.9Q96.5 73.8 96.5 73.7Q96.5 73.6 96.5 73.5Q96.5 73.5 96.4 73.4Q96.4 73.3 96.4 73.2Q96.4 73.2 96.4 73.1L96.4 73L96.4 73H96.4Q96.5 73 96.5 73Q96.5 73 96.5 73Q96.5 73 96.5 72.9Q96.5 72.8 96.5 72.8Q96.5 72.8 96.6 72.8Q96.7 72.8 96.8 72.8Q96.9 72.9 97.1 72.9Q97.1 72.9 97.2 72.8Q97.3 72.8 97.4 72.8Q97.5 72.8 97.5 72.7Q97.6 72.7 97.7 72.7Q97.8 72.7 98 72.8Q98.1 72.8 98.3 72.8Q98.4 72.8 98.6 72.7Q98.7 72.7 98.9 72.7Q98.9 72.7 98.9 72.7Q99 72.7 99 72.8Q99.1 72.8 99.1 72.8Q99.2 72.9 99.2 72.9Q99.1 72.9 99.1 72.9Q99.1 73 99.1 73Q99.1 73 99.1 73Q99.1 73.1 99.2 73.1Q99.2 73.1 99.2 73.2Q99.3 73.2 99.3 73.3Q99.3 73.4 99.1 73.4Q99 73.5 98.8 73.5Q98.7 73.6 98.5 73.6Q98.3 73.6 98.3 73.6Q98.2 73.6 98.1 73.6Q98 73.6 98 73.6Q97.9 73.6 97.8 73.6Q97.6 73.7 97.5 73.8Q97.3 73.9 97.2 74.1Q97 74.2 96.9 74.3Q96.8 74.5 96.7 74.6Q96.6 74.7 96.6 74.8Q96.6 74.9 96.6 75Q96.6 75 96.6 75.1Q96.6 75.2 96.6 75.2Q96.6 75.3 96.7 75.3Q96.8 75.4 96.8 75.4Q96.9 75.5 96.9 75.5Q97 75.6 97.1 75.8Q97.2 75.9 97.3 76.1Q97.4 76.2 97.5 76.4Q97.7 76.5 97.8 76.7Q97.9 76.8 97.9 77Q98 77.1 98 77.2V77.2Q98.2 77.2 98.5 77.2Q98.7 77.2 98.9 77.2Q99 77.2 99.2 77.2V77.3V77.3Q99.2 77.4 99.2 77.5Q99.3 77.5 99.3 77.6Q99.4 77.7 99.4 77.7Q99.4 77.7 99.4 77.8Z M109 72 109 72Q108.9 72 108.9 72Q108.9 72 108.8 72L108.8 72Q108.8 72 108.8 72.1Q108.8 72.1 108.9 72.1Q108.9 72.2 108.9 72.2Q109 72.2 109 72.3Q109 72.3 108.9 72.3Q108.8 72.3 108.8 72.3Q108.7 72.3 108.7 72.4Q108.7 72.5 108.6 72.5Q108.6 72.6 108.5 72.7Q108.4 72.7 108.3 72.7Q108.1 72.7 107.9 72.6Q107.7 72.5 107.6 72.4Q107.5 72.2 107.4 72.1Q107.4 71.9 107.4 71.8Q107.4 71.6 107.4 71.5Q107.3 71.3 107.2 71.3Q107.1 71.2 106.9 71.2Q106.7 71.2 106.5 71.2Q106.3 71.3 106.1 71.4Q106 71.5 105.8 71.7Q105.7 71.8 105.7 72Q105.7 72.3 105.7 72.4Q105.8 72.6 105.8 72.6Q105.9 72.7 106 72.7Q106.2 72.7 106.4 72.7Q106.4 72.7 106.5 72.8Q106.6 72.8 106.7 72.9Q106.7 73 106.8 73.1Q106.9 73.2 106.9 73.2Q106.9 73.4 106.8 73.4Q106.7 73.5 106.5 73.5Q106.4 73.6 106.2 73.6Q106.1 73.6 106 73.6Q105.9 73.6 105.8 73.6Q105.8 73.6 105.7 73.7Q105.7 73.8 105.7 73.8Q105.7 73.9 105.7 74Q105.7 74.3 105.7 74.7Q105.8 75.1 105.8 75.4Q105.8 75.6 105.7 75.8Q105.7 75.9 105.7 76Q105.7 76 105.7 76.1Q105.7 76.2 105.7 76.2Q105.7 76.3 105.7 76.5Q105.6 76.6 105.6 76.7Q105.6 76.8 105.7 76.8Q105.7 76.9 105.8 77Q105.8 77 105.8 77.1Q105.9 77.2 105.9 77.2Q106 77.2 106.2 77.2Q106.3 77.1 106.5 77.1Q106.6 77.1 106.7 77.1Q106.9 77.2 107.1 77.2Q107.2 77.2 107.4 77.3Q107.5 77.4 107.5 77.5Q107.5 77.6 107.4 77.7Q107.4 77.8 107.4 77.9Q107.3 78 107.2 78.1Q107.1 78.1 107 78.1Q106.9 78.2 106.7 78.2Q106.6 78.3 106.4 78.3Q106.4 78.3 106.3 78.3Q106.2 78.2 106.1 78.2Q106 78.2 105.9 78.1Q105.8 78.1 105.7 78.1Q105.5 78.1 105.2 78.1Q105 78.1 104.8 78.1Q104.6 78.1 104.5 78.2Q104.4 78.2 104.2 78.2Q104.1 78.3 104 78.3Q103.8 78.3 103.7 78.3Q103.7 78.3 103.6 78.3Q103.5 78.3 103.4 78.2Q103.3 78.2 103.3 78.2Q103.2 78.1 103.1 78.1L103.1 77.8Q103.1 77.7 103.2 77.6Q103.3 77.5 103.4 77.4Q103.5 77.4 103.7 77.4Q103.8 77.4 104 77.3Q104.2 77.3 104.3 77.3Q104.5 77.3 104.6 77.3Q104.7 77.2 104.8 77.1Q104.9 77 104.9 76.8Q104.9 76.7 104.8 76.6Q104.8 76.5 104.8 76.5H104.8Q104.9 76.4 104.9 76.3Q104.9 76.2 104.9 76.1Q104.9 76 104.9 75.9Q104.9 75.8 104.9 75.8Q104.9 75.6 104.9 75.4Q104.9 75.3 104.9 75.1Q104.8 75.1 104.8 75Q104.8 75 104.8 75Q104.8 74.8 104.9 74.7Q104.9 74.6 104.9 74.5Q104.9 74.4 104.9 74.4Q104.9 74.4 104.9 74.4Q104.9 74.3 104.8 74.3Q104.8 74.3 104.8 74.3Q104.9 74.2 104.9 74.2Q104.9 74.1 104.9 74Q104.9 74 104.9 73.9Q104.9 73.9 104.8 73.8Q104.8 73.8 104.8 73.7Q104.7 73.7 104.7 73.6Q104.7 73.6 104.5 73.6Q104.4 73.6 104.3 73.6Q104.1 73.6 104 73.6Q103.9 73.6 103.8 73.5Q103.6 73.5 103.6 73.4Q103.5 73.3 103.5 73.2Q103.5 73.1 103.6 73.1Q103.6 73 103.7 73Q103.8 72.9 103.9 72.9Q104 72.9 104.1 72.9Q104.1 72.9 104.2 72.9Q104.3 72.9 104.4 72.9Q104.5 72.9 104.6 72.9Q104.7 72.8 104.7 72.8Q104.8 72.8 104.8 72.7Q104.8 72.6 104.8 72.6Q104.8 72.5 104.9 72.4Q104.9 72.3 104.9 72.3Q104.9 72.2 104.8 72.1Q104.8 71.9 104.8 71.8Q104.8 71.6 104.9 71.5Q104.9 71.3 105 71.2Q105.2 71.1 105.3 70.9Q105.5 70.8 105.6 70.7Q105.8 70.6 105.9 70.5Q106.1 70.4 106.3 70.4Q106.5 70.3 106.7 70.3Q106.8 70.3 107 70.3Q107.1 70.3 107.2 70.3Q107.4 70.3 107.6 70.4Q107.7 70.4 107.9 70.5Q108.1 70.6 108.2 70.6Q108.4 70.7 108.5 70.8Q108.6 70.9 108.6 71Q108.7 71 108.8 71.1Q108.9 71.3 108.9 71.4Q109 71.6 109 71.7Q109 71.9 109 72Z M114.3 74.1Q114.3 74.2 114.3 74.3Q114.2 74.3 114.2 74.4Q114.1 74.5 114.1 74.5Q114 74.6 114 74.7Q114 74.7 113.9 74.7Q113.9 74.7 113.8 74.7Q113.7 74.7 113.6 74.7Q113.4 74.7 113.3 74.7Q113.2 74.7 113.1 74.6Q113 74.5 112.9 74.4Q112.9 74.3 112.8 74.1Q112.8 74 112.8 73.9Q112.8 73.7 112.9 73.6Q112.8 73.5 112.8 73.5Q112.7 73.5 112.7 73.6Q112.7 73.6 112.6 73.6Q112.6 73.6 112.5 73.6Q112.5 73.6 112.4 73.6Q112.4 73.6 112.2 73.6Q112.1 73.7 112 73.7Q111.9 73.8 111.8 73.9Q111.7 74 111.7 74.1Q111.6 74.1 111.5 74.2Q111.4 74.2 111.3 74.3Q111.3 74.3 111.2 74.4Q111.2 74.5 111.1 74.6Q111.1 74.7 111 74.8Q111 74.9 110.9 75Q110.9 75.1 110.8 75.2Q110.7 75.3 110.7 75.5Q110.7 75.7 110.8 75.9Q110.8 76.1 110.8 76.3Q110.8 76.4 110.8 76.5Q110.8 76.7 110.8 76.8Q110.8 76.9 110.9 77Q110.9 77.1 111 77.2Q111.1 77.2 111.2 77.2Q111.3 77.2 111.4 77.2Q111.6 77.2 111.7 77.2Q111.8 77.2 111.9 77.2Q112 77.3 112 77.3Q112 77.4 112 77.4Q112 77.4 112 77.5Q111.9 77.5 111.9 77.6Q111.9 77.6 112 77.6Q112 77.6 112.1 77.6Q112.2 77.5 112.2 77.5Q112.2 77.5 112.3 77.5Q112.3 77.5 112.3 77.6Q112.3 77.6 112.3 77.6Q112.2 77.7 112.2 77.7Q112.2 77.7 112.2 77.7Q112.2 77.8 112.2 77.8Q112.2 77.8 112.2 77.8Q112.2 77.9 112.2 77.9Q112.2 77.9 112.1 77.9Q112.1 78 112 78Q111.9 78 111.9 77.9Q111.8 77.9 111.8 77.9Q111.7 77.8 111.7 77.8Q111.7 77.8 111.6 77.8Q111.6 77.8 111.5 77.8Q111.5 77.8 111.5 77.8Q111.4 77.8 111.4 77.9Q111.3 77.9 111.3 77.9Q111.3 78 111.4 78Q111.4 78 111.4 78.1Q111.4 78.1 111.4 78.1Q111.4 78.1 111.3 78.2Q111.3 78.2 111.2 78.2Q111.2 78.2 111.2 78.2Q111 78.2 110.8 78.1Q110.5 78.1 110.3 78.1Q110.2 78.1 110.1 78.1Q110 78.2 109.9 78.2Q109.9 78.2 109.8 78.1Q109.8 78.1 109.8 78.1Q109.8 78 109.8 78Q109.7 78 109.7 78Q109.6 78 109.5 78Q109.4 78 109.3 78.1Q109.2 78.1 109.1 78.1Q109 78.1 108.9 78.1Q108.8 78.1 108.7 78.1Q108.7 78.1 108.6 78.1Q108.5 78 108.5 78Q108.4 77.9 108.4 77.9Q108.4 77.8 108.5 77.8Q108.5 77.7 108.6 77.6Q108.7 77.6 108.7 77.5Q108.8 77.5 108.8 77.5Q108.9 77.5 109 77.5Q109.1 77.5 109.2 77.5Q109.3 77.5 109.5 77.4Q109.6 77.4 109.7 77.3Q109.8 77.2 109.9 77.1Q110 76.9 110 76.8Q110 76.7 110 76.6Q110 76.6 110 76.5Q110 76.4 110 76.2Q110 76.1 110 76Q110 75.8 110 75.6Q110 75.4 110 75.2Q110 75 110 74.8Q110 74.6 110 74.5Q110 74.4 110 74.2Q110 74.1 109.9 73.9Q109.9 73.8 109.8 73.6Q109.8 73.5 109.7 73.5Q109.6 73.5 109.4 73.6Q109.3 73.6 109.2 73.6Q109.1 73.6 109 73.6Q108.9 73.6 108.7 73.5Q108.6 73.5 108.6 73.4Q108.5 73.3 108.5 73.2Q108.5 73.1 108.5 73Q108.5 72.9 108.6 72.9Q108.7 72.8 108.8 72.8Q108.8 72.8 108.9 72.8Q109 72.8 109.1 72.8Q109.2 72.8 109.3 72.8Q109.5 72.8 109.6 72.8Q109.8 72.8 110 72.8Q110.1 72.8 110.2 72.8Q110.3 72.8 110.4 72.8Q110.5 72.8 110.6 72.9Q110.6 73 110.7 73.1Q110.7 73.2 110.8 73.3Q110.8 73.4 110.9 73.4Q111 73.4 111 73.3Q111.1 73.3 111.1 73.3Q111.2 73.2 111.2 73.2Q111.3 73.2 111.3 73.1Q111.4 73.1 111.5 73.1Q111.6 73 111.7 73Q111.8 72.9 111.9 72.8Q112 72.8 112.1 72.8Q112.2 72.8 112.3 72.8Q112.4 72.8 112.5 72.7Q112.6 72.7 112.7 72.7Q112.8 72.6 112.9 72.6Q113 72.6 113.2 72.6Q113.4 72.7 113.6 72.8Q113.8 72.9 113.9 73Q114 73.2 114.1 73.3Q114.1 73.4 114.1 73.5Q114.2 73.6 114.2 73.7Q114.3 73.8 114.3 73.9Q114.3 74 114.3 74.1Z M120.5 75.6Q120.5 75.7 120.4 75.8Q120.4 75.9 120.4 75.9Q120.3 76 120.3 76Q120.3 76 120.3 76Q120.3 76.1 120.3 76.1Q120.4 76.2 120.4 76.3Q120.4 76.3 120.3 76.3Q120.3 76.3 120.3 76.3Q120.2 76.3 120.2 76.3Q120.2 76.4 120.2 76.5Q120.2 76.6 120.2 76.7Q120.2 76.9 120.2 76.9Q120.2 77 120.2 77Q120.1 77 120.1 77Q120.1 77 120.1 77.1Q120.1 77.1 120 77.2Q119.9 77.3 119.8 77.4Q119.7 77.4 119.6 77.5Q119.5 77.5 119.5 77.5Q119.5 77.5 119.4 77.5Q119.4 77.6 119.5 77.6Q119.5 77.7 119.5 77.7Q119.5 77.8 119.4 77.8Q119.4 77.8 119.3 77.9Q119.2 77.9 119.1 78Q119.1 78 119 78.1Q118.9 78.2 118.8 78.2Q118.7 78.3 118.6 78.3Q118.5 78.3 118.4 78.3Q118.4 78.2 118.3 78.2Q118.2 78.2 118.1 78.2Q118.1 78.3 118 78.3Q118 78.3 117.9 78.3Q117.8 78.4 117.8 78.4Q117.6 78.4 117.5 78.3Q117.4 78.2 117.2 78.2Q117.2 78.2 117.1 78.1Q117 78.1 116.9 78.1Q116.8 78.1 116.8 78.1Q116.7 78 116.6 78Q116.5 77.8 116.4 77.7Q116.2 77.6 116.1 77.6Q115.9 77.5 115.8 77.4Q115.6 77.3 115.5 77.2Q115.4 77 115.3 76.9Q115.2 76.8 115.1 76.6Q115 76.5 115 76.3Q114.9 76.2 114.9 76Q114.9 75.9 114.9 75.8Q115 75.7 115 75.6Q115 75.5 115 75.4Q115.1 75.3 115.1 75.2V75.2Q115.1 75.1 115 75.1Q115 75.1 115 75.1Q115 75 115 75Q114.9 75 114.9 75Q114.9 75 114.9 75Q114.9 74.9 115 74.8Q115 74.8 115 74.6Q115.1 74.5 115.1 74.5Q115.1 74.4 115.1 74.3Q115.2 74.3 115.2 74.3Q115.2 74.3 115.2 74.2Q115.2 74.2 115.2 74.1Q115.2 74.1 115.2 74Q115.2 74 115.2 73.9Q115.3 73.9 115.3 73.9Q115.3 73.9 115.3 73.9Q115.4 73.9 115.4 73.9Q115.4 73.8 115.5 73.7Q115.5 73.6 115.6 73.5Q115.6 73.5 115.7 73.4Q115.8 73.3 115.9 73.3Q116 73.2 116 73.2Q116.1 73.1 116.2 73Q116.3 73 116.4 72.9Q116.5 72.9 116.6 72.9Q116.7 72.9 116.9 72.8Q117 72.8 117.1 72.7Q117.4 72.7 117.6 72.7Q117.8 72.6 118 72.6Q118.1 72.6 118.3 72.7Q118.5 72.7 118.7 72.8Q118.9 72.8 119 72.9Q119.2 73 119.3 73.1V73.1Q119.3 73.2 119.3 73.3Q119.2 73.3 119.2 73.4Q119.2 73.4 119.2 73.4Q119.2 73.4 119.3 73.4Q119.3 73.4 119.4 73.4Q119.5 73.4 119.6 73.4Q119.6 73.5 119.7 73.5Q119.8 73.6 119.8 73.6Q119.9 73.6 119.9 73.7Q120 73.8 120 73.9Q120.1 74 120.1 74.1Q120.2 74.2 120.2 74.3Q120.3 74.3 120.3 74.4Q120.3 74.5 120.4 74.6Q120.4 74.7 120.4 74.8Q120.4 74.9 120.4 75Q120.4 75.1 120.4 75.1Q120.3 75.2 120.3 75.3Q120.2 75.3 120.2 75.4Q120.2 75.4 120.2 75.5Q120.2 75.5 120.2 75.6Q120.2 75.6 120.2 75.6Q120.2 75.6 120.3 75.6Q120.3 75.6 120.3 75.6V75.6Q120.3 75.5 120.3 75.5Q120.2 75.5 120.2 75.4Q120.2 75.4 120.2 75.4Q120.2 75.3 120.3 75.3Q120.3 75.3 120.3 75.4Q120.4 75.4 120.4 75.5Q120.4 75.5 120.4 75.5Q120.4 75.6 120.4 75.6L120.4 75.6Q120.4 75.6 120.5 75.6Q120.5 75.6 120.5 75.6ZM119.9 75.7Q119.9 75.6 119.9 75.6Q119.8 75.6 119.7 75.6Q119.6 75.6 119.5 75.5Q119.5 75.5 119.4 75.5V75.4Q119.4 75.3 119.4 75.1Q119.4 75 119.3 74.8Q119.3 74.6 119.3 74.5Q119.2 74.3 119.2 74.2Q119.1 74.1 119.1 74Q119.1 73.9 119.1 73.9Q119 73.9 119 73.9Q118.9 73.9 118.8 73.9Q118.8 73.9 118.7 73.8Q118.6 73.8 118.5 73.7Q118.4 73.7 118.2 73.7Q117.9 73.7 117.7 73.7Q117.5 73.6 117.3 73.6Q117 73.6 116.7 73.8Q116.5 73.9 116.3 74.1Q116.1 74.4 116 74.6Q115.8 74.9 115.8 75.2Q115.8 75.3 115.8 75.5Q115.9 75.6 115.9 75.8Q115.9 76 115.9 76.1Q116 76.2 116.1 76.3V76.5Q116.1 76.5 116.1 76.5Q116.2 76.5 116.2 76.5Q116.2 76.5 116.3 76.5Q116.3 76.5 116.3 76.5Q116.4 76.7 116.5 76.8Q116.6 76.9 116.7 77Q116.9 77.1 117 77.2Q117.1 77.2 117.2 77.4Q117.3 77.4 117.3 77.4Q117.4 77.4 117.4 77.4Q117.6 77.4 117.7 77.4Q117.9 77.4 118.1 77.4Q118.3 77.4 118.4 77.3Q118.5 77.2 118.6 77.1Q118.7 77 118.8 76.9Q118.8 76.9 118.9 76.8Q118.9 76.8 119 76.7Q119.1 76.7 119.1 76.6Q119.2 76.6 119.2 76.5Q119.3 76.5 119.3 76.5Q119.4 76.4 119.4 76.4Q119.4 76.3 119.4 76.3Q119.4 76.3 119.4 76.2Q119.4 76.2 119.4 76.1Q119.4 76.1 119.4 76Q119.4 75.9 119.5 75.8Q119.5 75.8 119.6 75.7Q119.6 75.7 119.7 75.7Q119.7 75.7 119.8 75.7Q119.9 75.7 119.9 75.8Q119.9 75.7 119.9 75.7Z M127.9 77.7Q127.9 77.8 127.8 77.9Q127.8 77.9 127.8 78Q127.8 78.1 127.7 78.2Q127.7 78.2 127.7 78.2Q127.6 78.2 127.5 78.2Q127.5 78.2 127.4 78.2Q127.2 78.2 127 78.2Q126.9 78.2 126.7 78.2Q126.6 78.2 126.5 78.2Q126.4 78.2 126.3 78.2Q126.3 78.1 126.2 78.1Q126.1 78.1 126 78.1Q125.9 78.1 125.8 78Q125.8 77.9 125.8 77.8Q125.8 77.6 125.8 77.5Q125.9 77.4 126 77.3Q126.1 77.2 126.2 77Q126.3 76.9 126.3 76.6Q126.3 76.1 126.2 75.6Q126.2 75.1 126.2 74.5V74.4Q126.2 74.3 126.2 74.1Q126.1 74 126.1 73.9Q126.1 73.8 126 73.8Q125.9 73.7 125.8 73.7Q125.6 73.8 125.5 73.9Q125.4 74 125.3 74.1Q125.3 74.1 125.2 74.3Q125.2 74.4 125.2 74.5Q125.1 74.7 125.1 74.9Q125.1 75.1 125 75.2Q125 75.4 125 75.5Q125 75.7 125 75.7Q125 76 125 76.2Q125 76.4 125 76.6Q125 76.7 125 76.8Q125 76.9 125 77Q125 77 125 77.1Q125 77.1 125 77.2Q125.1 77.2 125.2 77.2Q125.3 77.3 125.3 77.3Q125.4 77.4 125.4 77.5Q125.5 77.5 125.5 77.6Q125.5 77.8 125.4 77.9Q125.3 78 125.1 78Q125.1 78 125.1 78Q125 78 125 78Q124.9 78 124.9 78Q124.8 78 124.8 78Q124.7 78 124.7 78.1Q124.6 78.1 124.5 78.1Q124.4 78.1 124.2 78Q124.1 78 123.9 78Q123.8 78 123.8 78Q123.8 77.9 123.7 77.9Q123.7 77.8 123.7 77.8Q123.7 77.7 123.7 77.7Q123.7 77.6 123.7 77.5Q123.8 77.5 123.8 77.4Q123.9 77.4 124 77.3Q124 77.3 124.1 77.2Q124.2 77.2 124.2 77Q124.2 76.9 124.2 76.7Q124.2 76.6 124.2 76.6Q124.2 76.5 124.2 76.4Q124.2 76.3 124.1 76.3Q124.1 76.2 124.1 76.1Q124.1 76 124.1 75.8Q124.2 75.7 124.2 75.6Q124.2 75.4 124.1 75.4Q124.1 75.3 124.1 75.2Q124.1 75.1 124.1 75Q124.2 75 124.2 74.9Q124.2 74.9 124.2 74.8Q124.2 74.8 124.2 74.7Q124.1 74.6 124.1 74.5Q124.1 74.5 124.1 74.4Q124.1 74.3 124.1 74.2Q124.2 74.1 124.2 74Q124.2 73.9 124.1 73.9Q124.1 73.8 124.1 73.8Q124 73.8 124 73.7Q123.9 73.7 123.8 73.7Q123.7 73.7 123.7 73.7Q123.6 73.8 123.5 73.8Q123.4 73.9 123.4 74Q123.3 74 123.2 74.1Q123.2 74.1 123.2 74.2Q123.2 74.2 123.2 74.3Q123.1 74.3 123.1 74.3Q123 74.3 123 74.4Q122.9 74.4 122.9 74.4Q122.9 74.4 122.9 74.5Q122.9 74.5 122.9 74.6Q122.9 74.6 123 74.6Q123 74.7 123 74.8Q123 74.9 123 75Q123 75.1 123 75.2Q122.9 75.2 122.9 75.3Q122.9 75.4 122.9 75.5L122.9 76Q122.9 76.1 122.9 76.1Q122.9 76.2 123 76.2Q123 76.2 123 76.2Q123 76.2 123.1 76.3Q123.1 76.4 123.1 76.6Q123.1 76.7 123.1 76.8Q123.1 76.9 123.1 77Q123.1 77.1 123.1 77.2Q123.1 77.3 123.1 77.4Q123.1 77.4 123.2 77.5Q123.2 77.5 123.3 77.5Q123.3 77.5 123.4 77.5Q123.5 77.6 123.5 77.6Q123.5 77.7 123.5 77.8Q123.5 77.9 123.5 78Q123.4 78 123.3 78Q123 78.1 122.6 78.2Q122.2 78.2 121.9 78.2Q121.8 78.2 121.7 78.2Q121.6 78.2 121.6 78.2Q121.5 78.2 121.5 78.1Q121.5 78 121.5 77.9Q121.5 77.7 121.6 77.6Q121.7 77.5 121.8 77.5Q121.9 77.4 122 77.3Q122.1 77.2 122.1 77.1Q122.1 77 122.1 77Q122.1 76.9 122.1 76.9Q122.1 76.9 122.1 76.8Q122.1 76.8 122.2 76.7Q122.2 76.6 122.2 76.5Q122.1 76.3 122.1 76.2Q122.1 76.1 122.1 76Q122 75.9 122 75.8Q122 75.5 122.1 75.3Q122.1 75 122.1 74.8Q122.1 74.6 122.1 74.5Q122.1 74.4 122.1 74.2Q122.1 74.1 122.1 74Q122 73.9 122 73.8Q122 73.7 121.9 73.7Q121.8 73.6 121.6 73.6Q121.6 73.5 121.5 73.4Q121.4 73.4 121.4 73.3Q121.4 73.2 121.5 73.1Q121.5 73.1 121.6 73Q121.7 73 121.7 73Q121.8 73 121.8 72.9Q121.8 72.9 121.8 72.9Q121.9 72.8 121.9 72.8Q122.1 72.8 122.2 72.9Q122.3 72.9 122.5 73Q122.6 73 122.7 73.1Q122.8 73.1 122.9 73.1Q123 73.1 123.2 73.1Q123.3 73 123.4 72.9Q123.6 72.8 123.8 72.7Q124 72.7 124.2 72.7Q124.3 72.7 124.4 72.7Q124.5 72.8 124.6 72.8Q124.7 72.9 124.7 73Q124.8 73 124.9 73.1Q125 73 125.2 72.9Q125.3 72.8 125.5 72.7Q125.7 72.7 125.9 72.7Q126.1 72.6 126.3 72.6Q126.4 72.6 126.5 72.7Q126.6 72.8 126.7 72.9Q126.8 73 126.9 73.2Q126.9 73.3 127 73.5Q127 73.6 127.1 73.8Q127.1 73.9 127.1 74Q127.1 74 127.1 74Q127.2 74.1 127.2 74.1Q127.2 74.2 127.1 74.3Q127.1 74.3 127.1 74.4Q127.1 74.5 127 74.5Q127 74.6 127 74.7Q127 74.7 127 74.8Q127.1 74.9 127.1 75Q127.1 75 127 75.1Q127 75.2 127 75.3Q127 75.4 127.1 75.5Q127.1 75.6 127.1 75.7Q127.1 75.8 127.1 75.8Q127 75.9 127 76Q127 76.1 127 76.1Q126.9 76.2 126.9 76.3Q126.9 76.3 126.9 76.3Q126.9 76.4 127 76.4L127.2 76.9Q127.2 77 127.3 77.1Q127.4 77.2 127.6 77.3Q127.7 77.4 127.8 77.5Q127.9 77.6 127.9 77.7Z M138 73.1Q138 73.2 137.9 73.2Q137.9 73.3 137.9 73.4Q137.8 73.4 137.7 73.5Q137.7 73.5 137.6 73.6Q137.5 73.6 137.4 73.6Q137.2 73.6 137.1 73.6Q137 73.7 136.9 73.7Q136.8 73.8 136.8 73.9Q136.8 74 136.8 74Q136.8 74.1 136.7 74.1Q136.7 74.1 136.7 74.1Q136.7 74.1 136.7 74.1L136.6 74.1Q136.5 74.3 136.5 74.5Q136.5 74.7 136.4 74.9Q136.3 74.9 136.3 75Q136.2 75.1 136.2 75.2Q136.2 75.3 136.1 75.4Q136.1 75.5 136.1 75.6Q135.9 76 135.7 76.4Q135.6 76.8 135.4 77.2Q135.3 77.2 135.3 77.3Q135.3 77.4 135.3 77.4Q135.3 77.5 135.2 77.5Q135.2 77.6 135.1 77.6Q135.1 77.6 135 77.5Q135 77.5 134.9 77.5Q134.9 77.5 134.9 77.5Q134.9 77.6 134.9 77.6Q135 77.7 135 77.7Q135.1 77.7 135.2 77.8Q135.2 77.8 135.2 77.9Q135.2 77.9 135.2 78Q135.2 78 135.1 78.1Q135.1 78.1 135 78.2Q135 78.3 135 78.4Q135 78.5 134.9 78.6Q134.9 78.6 134.8 78.7Q134.8 78.8 134.7 78.9Q134.7 79 134.6 79.1Q134.6 79.2 134.6 79.3Q134.6 79.4 134.5 79.5Q134.5 79.6 134.4 79.6Q134.3 79.7 134.2 79.7Q134.2 79.8 134.1 80Q134 80.2 133.8 80.3Q133.7 80.4 133.5 80.5Q133.4 80.5 133.2 80.5Q133 80.5 132.9 80.5Q132.8 80.5 132.7 80.4Q132.6 80.4 132.6 80.4Q132.5 80.4 132.5 80.4Q132.4 80.4 132.4 80.3Q132.4 80.3 132.3 80.2Q132.2 80.1 132.1 80Q132 79.9 131.9 79.8Q131.8 79.7 131.8 79.6Q131.7 79.6 131.7 79.5Q131.7 79.4 131.7 79.3Q131.6 79.3 131.6 79.2Q131.5 79.2 131.5 79.1Q131.5 79.1 131.6 78.9Q131.6 78.8 131.7 78.6Q131.7 78.5 131.8 78.3Q131.9 78.2 131.9 78.2Q132 78.2 132 78.2Q132 78.2 132.1 78.2Q132.2 78.2 132.3 78.2Q132.4 78.1 132.5 78.1Q132.6 78.1 132.6 78.2Q132.7 78.2 132.7 78.3Q132.7 78.3 132.7 78.3Q132.7 78.4 132.7 78.4Q132.8 78.4 132.8 78.4Q132.9 78.3 132.9 78.3Q133 78.3 133 78.4Q133.1 78.4 133.1 78.5Q133.2 78.5 133.2 78.6Q133.2 78.6 133.3 78.7Q133.3 78.7 133.3 78.7Q133.4 78.8 133.4 78.8Q133.4 78.8 133.4 78.9Q133.5 78.9 133.5 78.9Q133.5 79 133.4 79Q133.4 79.1 133.4 79.1Q133.4 79.2 133.5 79.2Q133.5 79.2 133.5 79.2Q133.6 79.2 133.7 79.2Q133.8 79.1 133.9 78.9Q134 78.8 134.1 78.6Q134.2 78.5 134.2 78.3Q134.3 78.1 134.3 78Q134.4 77.9 134.4 77.8Q134.4 77.7 134.3 77.5Q134.3 77.4 134.2 77.2Q134.1 77 134.1 76.8Q134 76.5 133.9 76.3Q133.8 76.1 133.7 76Q133.7 75.8 133.6 75.7Q133.5 75.5 133.5 75.3Q133.4 75.1 133.3 74.9Q133.3 74.8 133.2 74.6Q133.1 74.5 133 74.3Q132.9 74.1 132.8 74Q132.8 73.8 132.8 73.7Q132.7 73.7 132.7 73.7Q132.6 73.7 132.6 73.7Q132.5 73.6 132.5 73.6Q132.4 73.6 132.4 73.6Q132.3 73.6 132.2 73.6Q132.1 73.6 131.9 73.6Q131.9 73.6 131.8 73.6Q131.7 73.6 131.6 73.6Q131.5 73.6 131.5 73.5Q131.4 73.5 131.4 73.4Q131.4 73.3 131.4 73.2Q131.5 73.2 131.5 73.1Q131.5 73 131.6 73Q131.6 72.9 131.7 72.9Q131.7 72.9 131.8 73Q131.9 73 132 73Q132.1 73 132.2 73Q132.3 73 132.5 73Q132.6 73 132.7 73Q132.8 72.9 132.9 72.9Q133 72.8 133.2 72.8Q133.4 72.8 133.6 72.8Q133.6 72.8 133.8 72.8Q133.9 72.8 134.1 72.8Q134.2 72.8 134.3 72.9Q134.5 72.9 134.5 73.1Q134.5 73.2 134.4 73.3Q134.3 73.4 134.3 73.5Q134.2 73.5 134.1 73.6Q134 73.6 133.9 73.7Q133.8 73.8 133.8 73.8Q133.7 73.9 133.7 74Q133.7 74.2 133.8 74.4Q133.9 74.6 134 74.8Q134.2 75 134.3 75.2Q134.4 75.3 134.4 75.5Q134.4 75.5 134.4 75.7Q134.5 75.8 134.5 75.9Q134.6 76.1 134.6 76.1Q134.7 76.2 134.8 76.2Q134.9 76.2 134.9 76.2Q135 76.1 135 76.1Q135.1 76 135.1 75.9Q135.1 75.8 135.1 75.8Q135.2 75.6 135.2 75.5Q135.2 75.3 135.3 75.2Q135.4 75.1 135.5 75Q135.5 74.9 135.5 74.8Q135.6 74.6 135.7 74.6Q135.7 74.5 135.8 74.4Q135.8 74.3 135.8 74.2Q135.9 74.1 135.9 73.9Q135.9 73.8 135.8 73.7Q135.8 73.7 135.7 73.7Q135.6 73.6 135.5 73.6Q135.4 73.6 135.3 73.5Q135.3 73.5 135.2 73.4Q135.1 73.3 135.1 73.1Q135.1 73 135.2 72.9Q135.3 72.8 135.4 72.8Q135.6 72.8 135.7 72.7Q135.9 72.7 136 72.7H136.2Q136.4 72.7 136.7 72.7Q136.9 72.7 137.1 72.7Q137.2 72.7 137.3 72.7Q137.5 72.7 137.6 72.8Q137.7 72.8 137.8 72.9Q137.9 72.9 137.9 72.9Q137.9 72.9 137.9 73Q138 73 138 73.1ZM133.5 79.4 133.5 79.4H133.4Q133.3 79.4 133.3 79.4Q133.2 79.5 133.2 79.6L133.2 79.6Q133.3 79.6 133.3 79.6Q133.4 79.6 133.4 79.6Q133.5 79.5 133.5 79.5Q133.5 79.5 133.5 79.4V79.4Z M143.9 75.6Q143.9 75.7 143.9 75.8Q143.9 75.9 143.8 75.9Q143.8 76 143.8 76Q143.8 76 143.8 76Q143.8 76.1 143.8 76.1Q143.8 76.2 143.8 76.3Q143.8 76.3 143.8 76.3Q143.8 76.3 143.8 76.3Q143.7 76.3 143.7 76.3Q143.7 76.4 143.7 76.5Q143.7 76.6 143.7 76.7Q143.7 76.9 143.7 76.9Q143.6 77 143.6 77Q143.6 77 143.6 77Q143.5 77 143.5 77.1Q143.5 77.1 143.5 77.2Q143.4 77.3 143.3 77.4Q143.2 77.4 143.1 77.5Q143 77.5 142.9 77.5Q142.9 77.5 142.9 77.5Q142.9 77.6 142.9 77.6Q142.9 77.7 142.9 77.7Q142.9 77.8 142.9 77.8Q142.8 77.8 142.8 77.9Q142.7 77.9 142.6 78Q142.5 78 142.4 78.1Q142.3 78.2 142.2 78.2Q142.2 78.3 142.1 78.3Q142 78.3 141.9 78.3Q141.8 78.2 141.7 78.2Q141.6 78.2 141.6 78.2Q141.5 78.3 141.5 78.3Q141.4 78.3 141.4 78.3Q141.3 78.4 141.2 78.4Q141.1 78.4 141 78.3Q140.8 78.2 140.7 78.2Q140.6 78.2 140.5 78.1Q140.4 78.1 140.4 78.1Q140.3 78.1 140.2 78.1Q140.1 78 140.1 78Q140 77.8 139.8 77.7Q139.7 77.6 139.5 77.6Q139.4 77.5 139.2 77.4Q139.1 77.3 139 77.2Q138.9 77 138.8 76.9Q138.7 76.8 138.6 76.6Q138.5 76.5 138.4 76.3Q138.4 76.2 138.4 76Q138.4 75.9 138.4 75.8Q138.4 75.7 138.5 75.6Q138.5 75.5 138.5 75.4Q138.5 75.3 138.5 75.2V75.2Q138.5 75.1 138.5 75.1Q138.5 75.1 138.5 75.1Q138.4 75 138.4 75Q138.4 75 138.4 75Q138.4 75 138.4 75Q138.4 74.9 138.4 74.8Q138.4 74.8 138.5 74.6Q138.5 74.5 138.5 74.5Q138.6 74.4 138.6 74.3Q138.6 74.3 138.7 74.3Q138.7 74.3 138.7 74.2Q138.7 74.2 138.7 74.1Q138.7 74.1 138.7 74Q138.7 74 138.7 73.9Q138.7 73.9 138.7 73.9Q138.8 73.9 138.8 73.9Q138.8 73.9 138.9 73.9Q138.9 73.8 138.9 73.7Q139 73.6 139 73.5Q139.1 73.5 139.2 73.4Q139.2 73.3 139.3 73.3Q139.4 73.2 139.5 73.2Q139.6 73.1 139.7 73Q139.8 73 139.9 72.9Q139.9 72.9 140 72.9Q140.2 72.9 140.3 72.8Q140.5 72.8 140.6 72.7Q140.8 72.7 141 72.7Q141.3 72.6 141.5 72.6Q141.6 72.6 141.8 72.7Q142 72.7 142.1 72.8Q142.3 72.8 142.5 72.9Q142.7 73 142.8 73.1V73.1Q142.8 73.2 142.7 73.3Q142.7 73.3 142.7 73.4Q142.7 73.4 142.7 73.4Q142.7 73.4 142.7 73.4Q142.8 73.4 142.9 73.4Q143 73.4 143.1 73.4Q143.1 73.5 143.1 73.5Q143.2 73.6 143.3 73.6Q143.3 73.6 143.4 73.7Q143.5 73.8 143.5 73.9Q143.6 74 143.6 74.1Q143.6 74.2 143.7 74.3Q143.7 74.3 143.8 74.4Q143.8 74.5 143.8 74.6Q143.9 74.7 143.9 74.8Q143.9 74.9 143.9 75Q143.9 75.1 143.8 75.1Q143.8 75.2 143.7 75.3Q143.7 75.3 143.7 75.4Q143.6 75.4 143.6 75.5Q143.6 75.5 143.6 75.6Q143.6 75.6 143.7 75.6Q143.7 75.6 143.7 75.6Q143.8 75.6 143.8 75.6V75.6Q143.8 75.5 143.7 75.5Q143.7 75.5 143.7 75.4Q143.7 75.4 143.7 75.4Q143.7 75.3 143.7 75.3Q143.8 75.3 143.8 75.4Q143.8 75.4 143.8 75.5Q143.9 75.5 143.9 75.5Q143.9 75.6 143.9 75.6L143.9 75.6Q143.9 75.6 143.9 75.6Q143.9 75.6 143.9 75.6ZM143.4 75.7Q143.4 75.6 143.3 75.6Q143.2 75.6 143.2 75.6Q143.1 75.6 143 75.5Q142.9 75.5 142.9 75.5V75.4Q142.9 75.3 142.9 75.1Q142.8 75 142.8 74.8Q142.8 74.6 142.7 74.5Q142.7 74.3 142.6 74.2Q142.6 74.1 142.6 74Q142.5 73.9 142.5 73.9Q142.5 73.9 142.5 73.9Q142.4 73.9 142.3 73.9Q142.2 73.9 142.1 73.8Q142.1 73.8 141.9 73.7Q141.8 73.7 141.6 73.7Q141.4 73.7 141.2 73.7Q141 73.6 140.8 73.6Q140.5 73.6 140.2 73.8Q139.9 73.9 139.7 74.1Q139.5 74.4 139.4 74.6Q139.3 74.9 139.3 75.2Q139.3 75.3 139.3 75.5Q139.3 75.6 139.3 75.8Q139.4 76 139.4 76.1Q139.5 76.2 139.5 76.3V76.5Q139.6 76.5 139.6 76.5Q139.6 76.5 139.7 76.5Q139.7 76.5 139.7 76.5Q139.8 76.5 139.8 76.5Q139.8 76.7 140 76.8Q140.1 76.9 140.2 77Q140.3 77.1 140.5 77.2Q140.6 77.2 140.7 77.4Q140.7 77.4 140.8 77.4Q140.8 77.4 140.9 77.4Q141 77.4 141.2 77.4Q141.4 77.4 141.5 77.4Q141.7 77.4 141.9 77.3Q142 77.2 142.1 77.1Q142.2 77 142.2 76.9Q142.3 76.9 142.3 76.8Q142.4 76.8 142.5 76.7Q142.5 76.7 142.6 76.6Q142.6 76.6 142.7 76.5Q142.7 76.5 142.8 76.5Q142.8 76.4 142.9 76.4Q142.9 76.3 142.9 76.3Q142.9 76.3 142.9 76.2Q142.9 76.2 142.9 76.1Q142.9 76.1 142.9 76Q142.9 75.9 142.9 75.8Q143 75.8 143 75.7Q143.1 75.7 143.1 75.7Q143.2 75.7 143.3 75.7Q143.3 75.7 143.4 75.8Q143.4 75.7 143.4 75.7Z M151.2 77.7Q151.2 77.8 151.2 77.9Q151.1 78 151 78.1Q150.9 78.2 150.8 78.2Q150.7 78.3 150.6 78.3Q150.4 78.3 150.3 78.2Q150.1 78.2 149.9 78.2Q149.9 78.2 149.8 78.2Q149.6 78.2 149.6 78.2Q149.5 78.1 149.4 78.1Q149.4 78 149.3 77.9Q149.3 77.8 149.2 77.7Q149.2 77.7 149.1 77.6Q148.8 77.8 148.5 77.9Q148.3 78 148.1 78.1Q147.8 78.2 147.6 78.2Q147.3 78.3 147 78.3Q146.8 78.3 146.7 78.3Q146.7 78.3 146.6 78.2Q146.6 78.2 146.6 78.1Q146.5 78.1 146.5 78Q146.4 78 146.4 77.9Q146.3 77.9 146.3 77.9H146.3Q146.2 77.9 146.2 77.9Q146.1 77.9 146.1 77.8Q146.1 77.7 146.1 77.7Q146 77.6 145.9 77.5Q145.9 77.4 145.8 77.3Q145.8 77.3 145.7 77.2L145.7 76.7Q145.7 76.2 145.7 75.6Q145.8 75.1 145.8 74.6Q145.8 74.5 145.8 74.4Q145.8 74.2 145.7 74.1Q145.7 73.9 145.7 73.8Q145.6 73.7 145.5 73.7Q145.4 73.6 145.3 73.6Q145.2 73.6 145 73.6Q144.9 73.6 144.8 73.6Q144.7 73.6 144.6 73.5Q144.5 73.4 144.5 73.3Q144.4 73.2 144.4 73.1Q144.4 73 144.5 72.9Q144.7 72.8 144.8 72.8Q145 72.7 145.1 72.7Q145.3 72.6 145.4 72.6Q145.7 72.6 146 72.7Q146.2 72.8 146.5 73Q146.5 73 146.5 73Q146.5 73 146.5 73.1Q146.5 73.2 146.5 73.4Q146.5 73.5 146.5 73.7Q146.5 73.8 146.5 73.8Q146.5 73.9 146.5 74Q146.5 74.1 146.5 74.2Q146.5 74.3 146.5 74.4Q146.5 74.4 146.5 74.5Q146.5 74.5 146.5 74.6Q146.5 74.8 146.6 74.9Q146.6 75.1 146.6 75.2Q146.6 75.4 146.6 75.5Q146.5 75.7 146.5 75.8Q146.4 75.9 146.4 76.1Q146.4 76.2 146.4 76.4Q146.4 76.6 146.5 76.7Q146.5 76.9 146.7 77Q146.8 77.2 147 77.2Q147.2 77.3 147.4 77.3Q147.5 77.3 147.6 77.3Q147.7 77.2 147.8 77.2Q147.9 77.2 147.9 77.1Q147.9 77.1 148 77.1Q148 77.1 148.1 77.1Q148.1 77.1 148.1 77.1Q148.2 77.1 148.3 77.1Q148.3 77 148.3 77Q148.4 76.9 148.4 76.9Q148.5 76.9 148.5 76.9Q148.7 76.8 148.7 76.8Q148.8 76.7 148.8 76.6Q148.8 76.6 148.8 76.5Q148.9 76.5 148.9 76.5Q148.9 76.5 148.9 76.5Q148.9 76.5 149 76.6Q149 76.5 149 76.5Q149 76.5 149 76.4Q149.1 76.3 149.1 76.3Q149.2 76.2 149.2 76.1Q149.2 76 149.3 75.9Q149.3 75.8 149.3 75.7Q149.3 75.6 149.3 75.5Q149.2 75.5 149.2 75.4Q149.2 75.3 149.3 75.2Q149.3 75 149.3 74.9Q149.3 74.9 149.2 74.8Q149.2 74.8 149.2 74.7Q149.2 74.6 149.2 74.6Q149.3 74.6 149.3 74.6Q149.3 74.5 149.2 74.5Q149.2 74.4 149.2 74.4Q149.2 74.3 149.1 74.3Q149.1 74.2 149.1 74.2Q149.1 74.1 149.1 74Q149.1 74 149.1 73.9Q149.1 73.9 149.1 73.8Q149.1 73.7 149 73.7Q148.9 73.6 148.9 73.6Q148.8 73.6 148.7 73.6Q148.6 73.6 148.5 73.6Q148.4 73.6 148.3 73.5Q148.2 73.5 148.2 73.4Q148.1 73.4 148.1 73.2Q148 73.1 148 73.1Q148 73 148.1 72.9Q148.2 72.8 148.4 72.8Q148.6 72.7 148.7 72.7Q148.9 72.7 149 72.7Q149.1 72.7 149.1 72.7Q149.2 72.7 149.3 72.7Q149.4 72.7 149.5 72.7Q149.6 72.7 149.7 72.7Q149.8 72.7 149.9 72.7Q150 72.8 150 72.9Q150 73 150.1 73.2Q150.1 73.3 150.1 73.5Q150.1 73.7 150.1 73.8Q150 74 150 74.1Q150 74.4 150.1 74.6Q150.1 74.8 150.1 74.9Q150.1 75 150.1 75Q150.1 75.1 150.1 75.2Q150 75.2 150 75.3Q150 75.3 150 75.4Q150 75.4 150 75.4L150 75.8Q150 75.8 150 75.8Q150 75.8 150 75.9Q150 76 150 76Q150 76.1 150 76.2Q150 76.3 150 76.4Q150 76.5 150 76.6Q150 76.9 150.2 77Q150.3 77.1 150.6 77.1Q150.7 77.1 150.8 77.1Q150.9 77.2 150.9 77.2Q151 77.3 151.1 77.3Q151.1 77.4 151.2 77.5Q151.2 77.6 151.2 77.7Z M157.6 74.1Q157.6 74.2 157.6 74.3Q157.5 74.3 157.5 74.4Q157.4 74.5 157.4 74.5Q157.3 74.6 157.3 74.7Q157.3 74.7 157.2 74.7Q157.1 74.7 157.1 74.7Q157 74.7 156.8 74.7Q156.7 74.7 156.6 74.7Q156.4 74.7 156.4 74.6Q156.3 74.5 156.2 74.4Q156.1 74.3 156.1 74.1Q156.1 74 156.1 73.9Q156.1 73.7 156.2 73.6Q156.1 73.5 156.1 73.5Q156 73.5 156 73.6Q155.9 73.6 155.9 73.6Q155.8 73.6 155.8 73.6Q155.8 73.6 155.7 73.6Q155.6 73.6 155.5 73.6Q155.4 73.7 155.3 73.7Q155.2 73.8 155.1 73.9Q155 74 155 74.1Q154.9 74.1 154.8 74.2Q154.7 74.2 154.6 74.3Q154.5 74.3 154.5 74.4Q154.4 74.5 154.4 74.6Q154.4 74.7 154.3 74.8Q154.3 74.9 154.2 75Q154.1 75.1 154.1 75.2Q154 75.3 154 75.5Q154 75.7 154.1 75.9Q154.1 76.1 154.1 76.3Q154.1 76.4 154.1 76.5Q154.1 76.7 154.1 76.8Q154.1 76.9 154.1 77Q154.2 77.1 154.3 77.2Q154.4 77.2 154.5 77.2Q154.6 77.2 154.7 77.2Q154.9 77.2 155 77.2Q155.1 77.2 155.2 77.2Q155.3 77.3 155.3 77.3Q155.3 77.4 155.3 77.4Q155.2 77.4 155.2 77.5Q155.2 77.5 155.2 77.6Q155.2 77.6 155.2 77.6Q155.3 77.6 155.4 77.6Q155.4 77.5 155.5 77.5Q155.5 77.5 155.5 77.5Q155.6 77.5 155.6 77.6Q155.6 77.6 155.5 77.6Q155.5 77.7 155.5 77.7Q155.5 77.7 155.5 77.7Q155.4 77.8 155.4 77.8Q155.4 77.8 155.5 77.8Q155.5 77.9 155.5 77.9Q155.4 77.9 155.4 77.9Q155.3 78 155.3 78Q155.2 78 155.2 77.9Q155.1 77.9 155.1 77.9Q155 77.8 155 77.8Q154.9 77.8 154.9 77.8Q154.9 77.8 154.8 77.8Q154.8 77.8 154.7 77.8Q154.7 77.8 154.7 77.9Q154.6 77.9 154.6 77.9Q154.6 78 154.6 78Q154.7 78 154.7 78.1Q154.7 78.1 154.7 78.1Q154.6 78.1 154.6 78.2Q154.6 78.2 154.5 78.2Q154.5 78.2 154.4 78.2Q154.2 78.2 154 78.1Q153.8 78.1 153.6 78.1Q153.5 78.1 153.4 78.1Q153.3 78.2 153.2 78.2Q153.2 78.2 153.1 78.1Q153.1 78.1 153.1 78.1Q153.1 78 153 78Q153 78 152.9 78Q152.8 78 152.7 78Q152.6 78 152.5 78.1Q152.4 78.1 152.3 78.1Q152.2 78.1 152.1 78.1Q152.1 78.1 152 78.1Q151.9 78.1 151.9 78.1Q151.8 78 151.8 78Q151.7 77.9 151.7 77.9Q151.7 77.8 151.8 77.8Q151.8 77.7 151.9 77.6Q151.9 77.6 152 77.5Q152.1 77.5 152.1 77.5Q152.2 77.5 152.3 77.5Q152.3 77.5 152.4 77.5Q152.6 77.5 152.7 77.4Q152.9 77.4 153 77.3Q153.1 77.2 153.2 77.1Q153.3 76.9 153.3 76.8Q153.3 76.7 153.3 76.6Q153.3 76.6 153.3 76.5Q153.3 76.4 153.3 76.2Q153.3 76.1 153.3 76Q153.3 75.8 153.3 75.6Q153.2 75.4 153.2 75.2Q153.2 75 153.2 74.8Q153.3 74.6 153.3 74.5Q153.3 74.4 153.2 74.2Q153.2 74.1 153.2 73.9Q153.2 73.8 153.1 73.6Q153.1 73.5 152.9 73.5Q152.8 73.5 152.7 73.6Q152.6 73.6 152.5 73.6Q152.4 73.6 152.3 73.6Q152.1 73.6 152 73.5Q151.9 73.5 151.8 73.4Q151.7 73.3 151.7 73.2Q151.7 73.1 151.8 73Q151.8 72.9 151.9 72.9Q151.9 72.8 152 72.8Q152.1 72.8 152.2 72.8Q152.3 72.8 152.4 72.8Q152.5 72.8 152.6 72.8Q152.7 72.8 152.9 72.8Q153.1 72.8 153.2 72.8Q153.4 72.8 153.5 72.8Q153.6 72.8 153.7 72.8Q153.8 72.8 153.9 72.9Q153.9 73 154 73.1Q154 73.2 154 73.3Q154.1 73.4 154.2 73.4Q154.3 73.4 154.3 73.3Q154.4 73.3 154.4 73.3Q154.4 73.2 154.5 73.2Q154.5 73.2 154.6 73.1Q154.7 73.1 154.8 73.1Q154.9 73 155 73Q155.1 72.9 155.2 72.8Q155.3 72.8 155.4 72.8Q155.5 72.8 155.6 72.8Q155.7 72.8 155.8 72.7Q155.9 72.7 156 72.7Q156.1 72.6 156.2 72.6Q156.3 72.6 156.5 72.6Q156.7 72.7 156.9 72.8Q157 72.9 157.2 73Q157.3 73.2 157.3 73.3Q157.4 73.4 157.4 73.5Q157.4 73.6 157.5 73.7Q157.5 73.8 157.6 73.9Q157.6 74 157.6 74.1Z M167.6 77.8Q167.6 77.9 167.5 77.9Q167.5 77.9 167.5 78Q167.4 78 167.4 78Q167.4 78 167.4 78.1Q167.4 78.1 167.4 78.2Q167.2 78.2 167 78.2Q166.8 78.2 166.6 78.2Q166.5 78.2 166.5 78.2Q166.5 78.2 166.4 78.2Q166.4 78.2 166.4 78.1Q166.3 78.1 166.3 78.1Q166.3 78.1 166.2 78.1Q166.1 78.1 166 78.1Q166 78.2 165.9 78.2Q165.8 78.2 165.8 78.3Q165.7 78.3 165.6 78.3Q165.5 78.3 165.4 78.2Q165.2 78.2 165.1 78.2Q165 78.2 164.9 78.1Q164.8 78.1 164.7 78Q164.6 77.9 164.6 77.8Q164.6 77.8 164.6 77.7Q164.6 77.7 164.7 77.6Q164.7 77.5 164.7 77.5Q164.7 77.4 164.8 77.4Q164.8 77.4 164.9 77.4Q164.9 77.5 165 77.5L165 77.5L165 77.4Q165 77.4 165 77.4Q165 77.3 164.9 77.3Q164.9 77.3 164.9 77.3Q164.8 77.3 164.8 77.3Q164.9 77.2 164.9 77.1Q164.9 77 164.9 77Q164.9 76.9 164.9 76.7Q164.9 76.6 164.8 76.5Q164.8 76.4 164.7 76.3Q164.6 76.2 164.5 76.2Q164.5 76.1 164.4 76Q164.4 75.9 164.3 75.9Q164.3 75.8 164.2 75.8Q164.1 75.7 164 75.7Q163.9 75.7 163.8 75.8Q163.6 75.9 163.5 76.1Q163.3 76.2 163.2 76.3Q163.1 76.4 163.1 76.5Q163.1 76.5 163.2 76.6Q163.2 76.6 163.2 76.7Q163.2 76.8 163.1 76.9Q163.1 76.9 163 77Q163.1 77.1 163.1 77.2Q163.2 77.2 163.3 77.2Q163.4 77.2 163.5 77.3Q163.5 77.3 163.6 77.3Q163.6 77.3 163.7 77.4Q163.8 77.4 163.8 77.5Q163.9 77.5 163.9 77.6Q164 77.6 164 77.7Q164 77.7 163.9 77.8Q163.9 77.8 163.8 77.8Q163.8 77.8 163.8 77.8Q163.7 77.8 163.7 77.9Q163.7 77.9 163.7 77.9Q163.5 77.9 163.2 78Q163 78 162.7 78.1Q162.6 78.1 162.5 78.1Q162.4 78.1 162.3 78.1Q162.2 78.1 162.1 78.1Q162 78.1 161.9 78.1Q161.8 78.2 161.7 78.2Q161.6 78.2 161.5 78.1Q161.4 78.1 161.3 78Q161.2 77.9 161.2 77.8Q161.2 77.7 161.2 77.6Q161.2 77.4 161.2 77.3Q161.3 77.2 161.4 77.2Q161.5 77.2 161.5 77.3Q161.5 77.3 161.6 77.3Q161.6 77.3 161.6 77.3Q161.6 77.3 161.6 77.2Q161.7 77.2 161.7 77.2Q161.7 77.1 161.8 77.1Q161.9 77.1 162 77Q162.1 77 162.2 76.8Q162.2 76.7 162.3 76.6Q162.3 76.4 162.3 76.3Q162.3 76.2 162.2 76.1Q162.2 76 162.2 75.9Q162.2 75.8 162.3 75.6Q162.3 75.5 162.3 75.3Q162.3 75 162.3 74.8Q162.3 74.5 162.3 74.3Q162.3 74.1 162.3 73.9Q162.3 73.7 162.3 73.5Q162.3 73.5 162.3 73.4Q162.3 73.3 162.3 73.3Q162.2 73.2 162.2 73.2Q162.2 73.1 162.2 73.1Q162.2 73 162.2 72.9Q162.3 72.7 162.3 72.6Q162.3 72.5 162.2 72.4Q162.2 72.3 162.2 72.2Q162.2 72.1 162.2 72Q162.2 71.9 162.2 71.8Q162.2 71.6 162.1 71.5Q162.1 71.4 161.9 71.4Q161.8 71.3 161.7 71.3Q161.5 71.3 161.4 71.3Q161.3 71.2 161.2 71.2Q161.1 71.1 161.1 71Q161.1 70.8 161.2 70.7Q161.2 70.6 161.4 70.6Q161.5 70.5 161.6 70.5Q161.7 70.5 161.8 70.5Q162.2 70.6 162.4 70.6Q162.6 70.7 162.7 70.7Q162.8 70.7 162.8 70.8Q162.8 70.8 162.8 70.8Q162.9 70.9 162.9 71.1Q162.9 71.3 162.9 71.5Q163 71.7 163 71.9Q163 72.1 163 72.2Q163 72.3 162.9 72.5Q162.9 72.6 162.9 72.8Q162.9 72.9 162.9 73Q163 73.2 163 73.3Q163 73.4 163 73.5Q163 73.6 163 73.7Q163 73.9 163 74Q163 74.1 163 74.3Q163 74.5 163 74.7Q163 74.9 163 75.1Q163.1 75.1 163.1 75.1Q163.1 75.1 163.1 75.1Q163.2 75.1 163.3 75Q163.4 75 163.4 74.9Q163.5 74.8 163.6 74.8Q163.6 74.7 163.7 74.6Q163.9 74.6 163.9 74.5Q164 74.4 164.1 74.3Q164.2 74.1 164.3 74Q164.4 74 164.5 73.9Q164.6 73.8 164.6 73.7Q164.6 73.6 164.6 73.5Q164.6 73.5 164.6 73.4Q164.5 73.3 164.5 73.2Q164.5 73.2 164.5 73.1L164.5 73L164.5 73H164.6Q164.6 73 164.6 73Q164.6 73 164.6 73Q164.6 73 164.6 72.9Q164.6 72.8 164.6 72.8Q164.7 72.8 164.7 72.8Q164.8 72.8 165 72.8Q165.1 72.9 165.2 72.9Q165.3 72.9 165.3 72.8Q165.4 72.8 165.5 72.8Q165.6 72.8 165.7 72.7Q165.7 72.7 165.8 72.7Q166 72.7 166.1 72.8Q166.2 72.8 166.4 72.8Q166.5 72.8 166.7 72.7Q166.8 72.7 167 72.7Q167 72.7 167.1 72.7Q167.1 72.7 167.2 72.8Q167.2 72.8 167.2 72.8Q167.3 72.9 167.3 72.9Q167.3 72.9 167.2 72.9Q167.2 73 167.2 73Q167.2 73 167.2 73Q167.3 73.1 167.3 73.1Q167.3 73.1 167.3 73.2Q167.4 73.2 167.4 73.3Q167.4 73.4 167.2 73.4Q167.1 73.5 166.9 73.5Q166.8 73.6 166.6 73.6Q166.5 73.6 166.4 73.6Q166.3 73.6 166.2 73.6Q166.2 73.6 166.1 73.6Q166 73.6 165.9 73.6Q165.8 73.7 165.6 73.8Q165.5 73.9 165.3 74.1Q165.1 74.2 165 74.3Q164.9 74.5 164.8 74.6Q164.7 74.7 164.7 74.8Q164.7 74.9 164.7 75Q164.7 75 164.7 75.1Q164.7 75.2 164.7 75.2Q164.8 75.3 164.8 75.3Q164.9 75.4 165 75.4Q165 75.5 165.1 75.5Q165.1 75.6 165.2 75.8Q165.3 75.9 165.4 76.1Q165.5 76.2 165.7 76.4Q165.8 76.5 165.9 76.7Q166 76.8 166 77Q166.1 77.1 166.1 77.2V77.2Q166.4 77.2 166.6 77.2Q166.8 77.2 167 77.2Q167.2 77.2 167.3 77.2V77.3V77.3Q167.3 77.4 167.4 77.5Q167.4 77.5 167.4 77.6Q167.5 77.7 167.5 77.7Q167.6 77.7 167.6 77.8Z M171.4 71.3Q171.4 71.4 171.4 71.6Q171.3 71.7 171.2 71.9Q171.2 72 171 72.1Q170.9 72.2 170.7 72.2Q170.6 72.2 170.4 72.2Q170.3 72.1 170.1 72.1Q170 72 169.8 71.9Q169.7 71.8 169.7 71.6Q169.7 71.5 169.8 71.4Q169.8 71.2 169.8 71.1Q169.9 71.1 169.9 71Q170 70.9 170 70.8Q170.1 70.8 170.1 70.7Q170.2 70.7 170.2 70.7L170.2 70.7Q170.3 70.6 170.4 70.6Q170.4 70.6 170.5 70.6Q170.6 70.6 170.8 70.6Q171 70.7 171.1 70.8Q171.2 70.9 171.3 71Q171.4 71.1 171.4 71.3ZM174 77.8Q174 77.9 174 78Q174 78 173.9 78.1Q173.9 78.2 173.8 78.2Q173.7 78.2 173.6 78.2Q173.6 78.2 173.5 78.2Q173.5 78.2 173.5 78.2Q173.4 78.1 173.3 78.1Q173.2 78.1 173.1 78.1Q173 78.1 172.9 78Q172.8 78 172.7 77.8Q172.7 77.7 172.6 77.7Q172.6 77.7 172.5 77.7Q172.2 77.7 172 77.8Q171.8 77.8 171.6 77.9Q171.4 78 171.2 78.1Q171 78.2 170.7 78.2Q170.6 78.2 170.5 78.2Q170.3 78.1 170.2 78.1Q170.2 78.1 170.2 78.1Q170.1 78.1 170.1 78.1Q170 78.1 170 78.1Q170 78.1 169.9 78.1Q169.9 78.1 169.9 78.1Q169.8 78.2 169.8 78.2L169.9 78.2Q169.8 78.3 169.7 78.3Q169.6 78.3 169.5 78.4Q169.3 78.4 169.2 78.4Q169.1 78.5 169 78.5Q168.9 78.5 168.7 78.4Q168.6 78.3 168.5 78.2Q168.5 78.2 168.4 78.1Q168.4 78 168.3 78Q168.3 77.9 168.2 77.9Q168.2 77.8 168.2 77.7Q168.2 77.7 168.3 77.6Q168.4 77.5 168.5 77.5Q168.6 77.5 168.7 77.5Q168.8 77.4 168.9 77.4Q169 77.4 169.2 77.5Q169.3 77.5 169.4 77.5Q169.5 77.5 169.7 77.5Q169.8 77.5 169.9 77.5Q170 77.5 170.1 77.5Q170.2 77.5 170.3 77.5Q170.4 77.5 170.5 77.4Q170.7 77.4 170.8 77.3Q170.8 77 170.8 76.8Q170.8 76.5 170.8 76.3Q170.8 76 170.8 75.7Q170.8 75.5 170.8 75.2Q170.8 75.2 170.8 75.2Q170.8 75.2 170.8 75.2Q170.8 75.2 170.8 75.2Q170.8 75.2 170.8 75.1Q170.8 75 170.8 74.9Q170.8 74.8 170.8 74.7Q170.8 74.5 170.8 74.4Q170.8 74.3 170.8 74.1Q170.8 74 170.8 73.9Q170.7 73.8 170.7 73.8Q170.6 73.7 170.5 73.7Q170.4 73.6 170.3 73.6Q170.2 73.6 170.1 73.6Q170 73.7 169.9 73.7Q169.8 73.7 169.6 73.8Q169.5 73.8 169.4 73.8Q169.2 73.8 169.1 73.8Q168.9 73.7 168.8 73.7Q168.7 73.7 168.6 73.7Q168.5 73.7 168.4 73.7Q168.3 73.6 168.3 73.6Q168.2 73.5 168.2 73.4Q168.2 73.2 168.3 73.1Q168.3 73 168.4 73Q168.5 72.9 168.7 72.9Q168.8 72.9 168.9 72.9Q169.1 72.9 169.3 72.9Q169.5 72.9 169.7 72.9Q170 72.9 170.2 72.9Q170.5 72.9 170.7 72.9Q170.9 72.9 171.1 73Q171.2 73 171.3 73.1Q171.5 73.2 171.5 73.4Q171.6 73.6 171.6 73.8Q171.6 73.9 171.5 74.1Q171.5 74.2 171.4 74.3Q171.4 74.4 171.4 74.4Q171.5 74.4 171.5 74.5Q171.5 74.5 171.6 74.5Q171.6 74.5 171.6 74.6Q171.6 74.7 171.6 74.7Q171.6 74.8 171.7 74.8Q171.7 75.1 171.7 75.4Q171.7 75.6 171.7 75.9Q171.7 76.2 171.7 76.4Q171.7 76.6 171.7 76.9Q171.7 77 171.8 77.1Q171.9 77.2 172 77.2Q172.3 77.2 172.5 77.1Q172.7 77.1 173 77.1Q173.1 77.1 173.2 77.2Q173.4 77.2 173.5 77.3Q173.6 77.4 173.7 77.5Q173.8 77.5 173.9 77.5Q174 77.5 174 77.6Q174 77.6 174 77.6Q174 77.7 174 77.7Q174 77.8 174 77.8Z M179.4 76.1Q179.4 76.3 179.4 76.4Q179.3 76.6 179.3 76.7Q179.3 76.9 179.2 77Q179.1 77.2 179.1 77.3Q179.1 77.6 178.9 77.8Q178.8 78 178.6 78.1Q178.4 78.2 178.1 78.2Q177.9 78.3 177.6 78.3Q177.4 78.3 177.1 78.3Q176.8 78.3 176.6 78.4Q176.5 78.3 176.5 78.2Q176.4 78.2 176.4 78.1Q176.3 78 176.3 78Q176.2 78 176.1 78Q176.1 78 176.1 77.9Q176.1 77.8 176 77.7Q176 77.6 176 77.5Q176 77.4 176 77.4Q175.8 77.4 175.8 77.3Q175.7 77.3 175.6 77.2Q175.6 77.1 175.6 77Q175.6 76.9 175.6 76.8Q175.6 76.7 175.5 76.7Q175.5 76.6 175.5 76.6Q175.4 76.5 175.4 76.4Q175.4 76.4 175.4 76.3Q175.4 76.2 175.4 76.1Q175.4 76 175.4 75.8Q175.4 75.7 175.4 75.6Q175.4 75.5 175.4 75.4Q175.4 75.3 175.4 75.2Q175.5 75.2 175.5 75.1Q175.5 75.1 175.6 75Q175.6 75 175.6 74.9Q175.6 74.9 175.6 74.8Q175.5 74.8 175.5 74.7Q175.5 74.7 175.6 74.6Q175.6 74.6 175.6 74.5Q175.7 74.3 175.7 74Q175.7 74 175.7 74Q175.7 73.9 175.7 73.9Q175.5 73.8 175.4 73.7Q175.2 73.7 175.1 73.7Q174.9 73.7 174.8 73.7Q174.7 73.6 174.6 73.5Q174.5 73.5 174.4 73.4Q174.4 73.3 174.2 73.2Q174.2 73.2 174.1 73.2Q174.1 73.1 174.1 73Q174.1 72.9 174.1 72.8Q174.2 72.8 174.3 72.7Q174.4 72.7 174.6 72.7Q174.7 72.6 174.8 72.6Q174.8 72.5 174.9 72.5Q175 72.5 175 72.5Q175.1 72.5 175.1 72.5Q175.3 72.5 175.4 72.5Q175.4 72.4 175.5 72.4Q175.5 72.3 175.6 72.2Q175.6 72.1 175.6 72Q175.6 71.8 175.6 71.6Q175.5 71.5 175.5 71.3Q175.5 71.1 175.6 70.9Q175.6 70.8 175.8 70.6Q175.8 70.6 175.9 70.6Q175.9 70.5 175.9 70.5Q176 70.4 176 70.4Q176.1 70.4 176.1 70.4Q176.2 70.4 176.2 70.4Q176.2 70.4 176.2 70.4Q176.4 70.5 176.4 70.6Q176.4 70.7 176.4 70.7Q176.4 70.8 176.4 70.8Q176.4 70.9 176.4 71Q176.4 71.1 176.5 71.3Q176.5 71.5 176.5 71.6Q176.5 71.7 176.5 71.8Q176.4 71.9 176.4 72Q176.4 72 176.5 72.1Q176.5 72.2 176.5 72.2Q176.6 72.3 176.6 72.3Q176.7 72.4 176.7 72.5Q176.7 72.5 176.9 72.6Q177.1 72.6 177.3 72.6Q177.6 72.6 177.8 72.6Q178 72.6 178.2 72.6Q178.3 72.6 178.4 72.7Q178.5 72.7 178.5 72.7Q178.6 72.7 178.6 72.8Q178.7 72.8 178.7 72.8Q178.8 72.8 178.9 72.8Q178.9 72.9 178.9 73Q178.9 73.1 178.9 73.2Q178.8 73.3 178.7 73.3Q178.6 73.3 178.5 73.3Q178.4 73.3 178.3 73.3Q178.1 73.3 178 73.3Q177.8 73.3 177.7 73.3Q177.4 73.3 177.2 73.4Q177 73.4 176.8 73.5Q176.7 73.6 176.6 73.8Q176.5 74 176.5 74.3Q176.5 74.6 176.5 74.8Q176.6 75.1 176.6 75.4Q176.6 75.6 176.6 75.8Q176.6 75.9 176.7 76.1Q176.7 76.2 176.8 76.4Q176.8 76.6 176.9 76.8Q176.9 77 177.1 77.1Q177.2 77.2 177.4 77.2Q177.5 77.2 177.6 77.2Q177.8 77.2 177.9 77.1Q178 77.1 178.1 77Q178.2 76.9 178.2 76.8Q178.2 76.7 178.2 76.6Q178.1 76.5 178.1 76.4Q178.1 76.4 178.2 76.3Q178.2 76.2 178.3 76.2Q178.3 76.1 178.4 76.1Q178.4 76.1 178.5 76.1Q178.6 75.9 178.7 75.8Q178.9 75.8 179 75.8Q179.1 75.8 179.2 75.8Q179.3 75.8 179.4 75.9Q179.4 76 179.4 76.1Z M185.2 76.9Q185.2 76.9 185.2 77Q185.1 77 185.1 77Q185.1 77 185 77.1Q185 77.1 184.9 77.2Q184.9 77.2 184.9 77.3Q184.9 77.3 184.8 77.4Q184.8 77.5 184.6 77.5Q184.5 77.6 184.4 77.6Q184.2 77.7 184.1 77.7Q184 77.8 184 78H184Q183.8 78 183.7 78Q183.6 78 183.5 78.1Q183.4 78.2 183.3 78.2Q183.2 78.2 183.1 78.2Q183 78.2 183 78.2Q182.9 78.2 182.9 78.2Q182.8 78.1 182.7 78.1Q182.7 78.1 182.6 78.1Q182.5 78.1 182.5 78.1Q182.4 78.1 182.3 78.1Q182.2 78.1 182.2 78.1Q182.1 78.1 182 78.1Q181.9 78 181.9 78Q181.8 77.9 181.8 77.8Q181.8 77.8 181.8 77.8Q181.8 77.8 181.8 77.8Q181.8 77.8 181.7 77.8Q181.6 77.8 181.4 77.8Q181.3 77.7 181.2 77.6Q181 77.5 180.9 77.4Q180.8 77.3 180.7 77.2Q180.6 77 180.5 76.9Q180.5 76.7 180.4 76.6Q180.2 76.2 180.1 75.9Q180.1 75.6 180.1 75.3Q180.1 75.2 180.1 75.1Q180.1 75 180.1 75Q180.2 75 180.2 74.9Q180.2 74.9 180.3 74.9Q180.3 74.9 180.3 74.9Q180.3 74.9 180.3 74.8Q180.3 74.8 180.3 74.7Q180.3 74.6 180.3 74.6Q180.3 74.5 180.3 74.5Q180.3 74.4 180.3 74.4Q180.4 74.3 180.4 74.2Q180.4 74 180.5 73.8Q180.5 73.7 180.6 73.5Q180.7 73.4 180.8 73.4Q180.8 73.4 180.9 73.4Q181 73.5 181 73.5Q181.1 73.5 181.2 73.4L181.2 73.4Q181.2 73.3 181.1 73.3Q181.1 73.3 181 73.3Q181 73.3 181 73.3Q180.9 73.3 180.9 73.2Q180.9 73.2 180.9 73.2Q181 73.1 181 73.1Q181.1 73.1 181.1 73.1Q181.1 73.1 181.2 73.1Q181.2 73 181.2 73Q181.3 72.9 181.3 72.9Q181.3 72.9 181.3 72.8Q181.4 72.8 181.5 72.8Q181.5 72.8 181.6 72.8Q181.7 72.8 181.8 72.8Q181.8 72.8 181.9 72.8Q182 72.8 182.1 72.7L182 72.7Q182 72.6 182.1 72.6Q182.1 72.6 182.2 72.6Q182.2 72.5 182.3 72.5Q182.4 72.5 182.4 72.5Q182.6 72.5 182.8 72.6Q183 72.6 183.1 72.6Q183.2 72.6 183.3 72.6Q183.4 72.6 183.4 72.6Q183.5 72.6 183.6 72.6Q183.7 72.7 183.8 72.8L183.9 72.8Q183.9 72.8 183.9 72.7Q184 72.7 184 72.7Q184 72.7 184 72.7Q184.1 72.7 184.1 72.8Q184.1 72.8 184.2 72.8Q184.3 72.8 184.3 72.9Q184.3 72.9 184.4 73Q184.4 73 184.5 73Q184.5 73 184.6 73Q184.6 73 184.7 73.1V73.2Q184.8 73.4 184.9 73.4Q185 73.5 185.1 73.6Q185.1 73.7 185.2 73.8Q185.2 73.9 185.2 74.1Q185.2 74.3 185.2 74.5Q185.1 74.7 185 74.8Q184.9 74.9 184.8 75Q184.6 75.1 184.3 75.1L184 75.1Q184 75 183.9 74.9Q183.8 74.7 183.7 74.6Q183.6 74.5 183.6 74.3Q183.5 74.2 183.5 74.1Q183.5 74.1 183.5 74Q183.5 73.9 183.5 73.8Q183.5 73.7 183.4 73.7Q183.4 73.6 183.3 73.6Q183.2 73.5 183.1 73.5Q183 73.5 182.9 73.5Q182.8 73.5 182.6 73.5Q182.5 73.5 182.4 73.6Q182.4 73.5 182.4 73.5Q182.3 73.5 182.3 73.5Q182.2 73.5 182.1 73.5Q182 73.6 181.9 73.7Q181.8 73.7 181.7 73.8Q181.6 73.9 181.5 74Q181.5 74 181.4 74.1Q181.4 74.3 181.3 74.4Q181.2 74.5 181.2 74.6Q181.1 74.7 181 74.7Q181 74.7 181.1 74.9Q181.1 75 181.1 75.1Q181.1 75.3 181.1 75.4Q181.2 75.5 181.2 75.6Q181.2 75.7 181.2 75.8Q181.2 75.9 181.2 76.1Q181.2 76.2 181.2 76.2Q181.2 76.3 181.2 76.4Q181.2 76.5 181.2 76.5Q181.2 76.6 181.3 76.6Q181.4 76.6 181.4 76.7Q181.5 76.7 181.5 76.8Q181.5 76.9 181.6 76.9Q181.6 77 181.7 77H181.7L181.8 77Q181.8 77 181.8 77.2Q181.9 77.3 181.9 77.4Q182 77.3 182 77.3Q182 77.3 182 77.3Q182 77.2 182 77.2Q182.1 77.2 182.1 77.2Q182.2 77.2 182.2 77.2Q182.3 77.3 182.3 77.3Q182.3 77.3 182.4 77.4Q182.4 77.4 182.4 77.4Q182.5 77.4 182.6 77.4Q182.8 77.3 182.9 77.3Q183 77.2 183.1 77.2Q183.2 77.1 183.3 77.1Q183.5 77.1 183.7 76.9Q183.9 76.8 184 76.6Q184.1 76.5 184.2 76.4Q184.3 76.3 184.3 76.2Q184.4 76.2 184.4 76.2Q184.5 76.2 184.5 76.2Q184.5 76.2 184.6 76.2Q184.6 76.2 184.6 76.2Q184.7 76.2 184.7 76.2Q184.7 76.2 184.7 76.2Q184.7 76.3 184.7 76.3Q184.7 76.3 184.6 76.4Q184.6 76.4 184.6 76.4Q184.5 76.5 184.5 76.5L184.6 76.5Q184.6 76.5 184.8 76.5Q184.9 76.6 185 76.6Q185.1 76.7 185.2 76.7Q185.2 76.8 185.2 76.9ZM184.8 77.2Q184.8 77.2 184.8 77.1Q184.8 77.1 184.8 77.1Q184.7 77.1 184.7 77.2Q184.7 77.2 184.7 77.2Q184.7 77.3 184.7 77.3Q184.7 77.3 184.8 77.3Q184.8 77.3 184.8 77.3Q184.8 77.2 184.8 77.2Z M192.3 77.7Q192.3 77.8 192.3 77.9Q192.2 78 192.2 78.1Q192.1 78.1 191.9 78.1Q191.8 78.1 191.7 78.1Q191.6 78.1 191.5 78.1Q191.4 78.1 191.2 78.1Q191.1 78.1 190.9 78.1Q190.8 78.2 190.6 78.2Q190.4 78.2 190.3 77.9Q190.3 77.9 190.2 78Q190.2 78 190.1 78.1Q190 78.1 190 78.2Q189.9 78.2 189.8 78.2Q189.7 78.2 189.6 78.2Q189.5 78.1 189.5 78Q189.5 78 189.5 77.9Q189.6 77.9 189.6 77.9Q189.6 77.8 189.6 77.8Q189.7 77.8 189.7 77.8Q189.7 77.8 189.6 77.7Q189.6 77.7 189.6 77.7Q189.6 77.7 189.5 77.7Q189.5 77.6 189.5 77.6Q189.5 77.5 189.6 77.5Q189.6 77.4 189.7 77.4Q189.8 77.4 190 77.4Q190.1 77.4 190.2 77.4Q190.3 77.4 190.4 77.4Q190.5 77.3 190.5 77.3Q190.6 77.2 190.6 77Q190.6 76.9 190.6 76.8Q190.7 76.6 190.7 76.5Q190.7 76.3 190.7 76.2Q190.7 76 190.7 75.7Q190.6 75.5 190.6 75.3Q190.6 75.2 190.5 75.1Q190.5 75 190.5 74.9Q190.5 74.8 190.5 74.7Q190.5 74.7 190.6 74.6Q190.6 74.6 190.6 74.6Q190.6 74.5 190.6 74.5Q190.6 74.4 190.6 74.3Q190.5 74.3 190.5 74.2Q190.5 74.1 190.5 74Q190.5 73.9 190.4 73.9Q190.4 73.8 190.4 73.8Q190.3 73.7 190.3 73.7Q190.2 73.6 190.2 73.6Q190.1 73.5 190.1 73.5Q189.9 73.5 189.8 73.5Q189.5 73.5 189.3 73.5Q189.1 73.5 188.9 73.6Q188.8 73.7 188.6 73.8Q188.4 73.9 188.3 74.1Q188.2 74.2 188.2 74.3Q188.1 74.3 188 74.4Q187.9 74.5 187.9 74.6Q187.8 74.7 187.8 74.8Q187.7 75 187.7 75.2Q187.7 75.5 187.7 75.7Q187.7 75.8 187.7 75.9Q187.7 76 187.8 76Q187.8 76.1 187.8 76.2Q187.8 76.2 187.8 76.3Q187.8 76.4 187.8 76.5Q187.8 76.6 187.7 76.7Q187.7 76.8 187.7 76.8Q187.6 76.9 187.6 76.9Q187.6 77 187.7 77Q187.7 77.1 187.8 77.1Q187.9 77.2 188 77.2Q188.1 77.3 188.1 77.3Q188.1 77.3 188.2 77.3Q188.2 77.3 188.3 77.3Q188.4 77.3 188.5 77.3Q188.6 77.4 188.7 77.5Q188.8 77.5 188.8 77.6Q188.8 77.6 188.7 77.6Q188.7 77.6 188.6 77.6Q188.6 77.6 188.6 77.6Q188.5 77.6 188.5 77.6Q188.5 77.6 188.5 77.5Q188.5 77.5 188.4 77.5Q188.4 77.5 188.4 77.5Q188.4 77.5 188.4 77.5Q188.3 77.5 188.3 77.5Q188.3 77.6 188.4 77.6Q188.4 77.7 188.5 77.7Q188.5 77.8 188.6 77.9Q188.6 77.9 188.6 78Q188.6 78 188.6 78Q188.6 78 188.6 78Q188.5 78 188.4 78Q188.4 78 188.3 78Q188.3 78 188.3 78Q188.2 78.1 188.1 78.1Q188.1 78.2 188 78.2Q187.8 78.2 187.7 78.2Q187.6 78.2 187.6 78.2Q187.5 78.1 187.5 78.1Q187.5 78 187.5 77.9Q187.4 77.9 187.3 77.9Q187.3 77.9 187.3 77.9Q187.2 77.9 187.2 78H187.2Q187.3 78 187.3 78Q187.3 78 187.3 78.1Q187.3 78.1 187.3 78.2Q187.4 78.2 187.4 78.2L187.3 78.2Q187.2 78.2 187.1 78.2Q187.1 78.3 187 78.3Q186.9 78.3 186.8 78.3Q186.8 78.3 186.7 78.3Q186.6 78.3 186.6 78.3Q186.5 78.3 186.5 78.3Q186.4 78.2 186.3 78.2Q186.2 78.2 186.1 78.2Q186 78.2 186 78.1Q185.9 78 185.9 77.9Q185.9 77.8 185.9 77.7Q186 77.6 186 77.6Q186.1 77.5 186.2 77.4Q186.3 77.4 186.4 77.4Q186.4 77.4 186.5 77.4Q186.5 77.5 186.6 77.5Q186.7 77.5 186.7 77.4Q186.7 77.4 186.8 77.4Q186.8 77.3 186.8 77.3Q186.9 77.2 186.9 77.2Q186.9 76.9 187 76.7Q187 76.4 187 76.1Q187 75.8 186.9 75.6Q186.9 75.3 186.9 75Q186.9 74.8 186.9 74.7Q187 74.5 187 74.3Q187 74.3 186.9 74.2Q186.9 74.1 186.9 74Q186.9 73.9 186.9 73.9Q187 73.8 187 73.8H187Q186.9 73.8 186.9 73.7Q186.9 73.6 187 73.6Q187 73.6 187 73.7Q187 73.6 187 73.6Q186.9 73.5 186.9 73.5Q186.9 73.4 186.9 73.4Q186.8 73.3 186.8 73.3Q186.9 73.2 186.9 73.1Q186.9 73 186.9 72.9Q186.9 72.9 186.9 72.8Q186.9 72.7 186.9 72.6Q186.9 72.5 187 72.4Q187 72.3 187 72.1Q187 72.1 187 72Q186.9 72 186.9 72Q186.9 72 186.8 72Q186.8 72 186.8 71.8Q186.8 71.7 186.8 71.6Q186.7 71.5 186.7 71.4Q186.6 71.3 186.5 71.3Q186.5 71.3 186.4 71.3Q186.3 71.3 186.3 71.3Q186.2 71.3 186.1 71.3Q186 71.2 185.9 71.1Q185.8 71.1 185.8 71Q185.8 70.9 185.8 70.8Q185.8 70.7 185.8 70.6Q185.9 70.6 186 70.6Q186 70.6 186 70.6Q186.1 70.6 186.1 70.6Q186.2 70.6 186.2 70.6Q186.3 70.6 186.3 70.5Q186.5 70.5 186.7 70.5Q186.8 70.5 187 70.5Q187.1 70.5 187.2 70.5Q187.2 70.6 187.3 70.6Q187.4 70.7 187.4 70.7Q187.5 70.8 187.6 70.8Q187.6 70.9 187.6 71Q187.6 71.1 187.6 71.3Q187.6 71.4 187.6 71.5Q187.6 71.6 187.6 71.7Q187.6 71.7 187.6 71.7Q187.6 71.7 187.6 71.7Q187.6 71.7 187.5 71.7Q187.5 71.8 187.5 71.8Q187.5 71.9 187.5 71.9Q187.6 72 187.6 72Q187.6 72 187.6 72.1Q187.6 72.1 187.6 72.2Q187.6 72.3 187.6 72.3Q187.6 72.4 187.6 72.5Q187.6 72.6 187.6 72.7Q187.6 72.9 187.6 73Q187.7 73.2 187.7 73.3Q187.8 73.4 187.9 73.4Q188 73.4 188.1 73.3Q188.2 73.3 188.3 73.2Q188.4 73.1 188.5 73.1Q188.6 73 188.6 72.9Q188.7 72.8 188.8 72.8Q189 72.8 189.1 72.7Q189.3 72.7 189.4 72.7Q189.6 72.7 189.7 72.7Q189.8 72.7 189.9 72.7Q190 72.7 190.1 72.7Q190.1 72.8 190.2 72.8Q190.2 72.9 190.3 72.9Q190.4 73 190.5 73Q190.5 73 190.6 73Q190.6 73 190.6 73Q190.7 73.1 190.7 73.1Q190.8 73.2 190.9 73.3Q191 73.4 191.1 73.5Q191.2 73.6 191.3 73.8Q191.3 73.9 191.3 74Q191.3 74.1 191.3 74.2Q191.3 74.3 191.3 74.3Q191.3 74.4 191.3 74.4Q191.3 74.5 191.3 74.5Q191.3 74.6 191.3 74.7Q191.3 74.8 191.3 74.9Q191.3 75 191.3 75.1Q191.2 75.2 191.2 75.2Q191.3 75.4 191.3 75.5Q191.3 75.7 191.3 75.8Q191.3 76 191.3 76.2Q191.3 76.4 191.3 76.6Q191.3 76.8 191.4 77Q191.4 77.1 191.5 77.2Q191.7 77.2 191.8 77.3Q191.9 77.3 192 77.4Q192.1 77.4 192.2 77.5Q192.3 77.6 192.3 77.7Z M198 76.9Q198 77 197.9 77.1Q197.9 77.2 197.8 77.3Q197.8 77.4 197.7 77.5Q197.6 77.5 197.5 77.6Q197.4 77.7 197.3 77.7Q197.3 77.7 197.2 77.8Q197.2 77.8 197.1 77.8Q197 77.8 197 77.9Q196.8 77.9 196.8 78Q196.7 78 196.6 78Q196.6 78.1 196.5 78.1Q196.4 78.1 196.3 78.1Q196 78.2 195.8 78.2Q195.6 78.2 195.4 78.2Q195.3 78.2 195.3 78.2Q195.3 78.2 195.2 78.2Q195.1 78.2 195.1 78.2Q195 78.1 194.9 78.1Q194.8 78.1 194.7 78.1Q194.7 78.1 194.6 78Q194.6 78 194.5 77.9Q194.4 77.9 194.4 77.8Q194 77.7 193.8 77.5Q193.6 77.3 193.4 77Q193.3 76.8 193.2 76.5Q193.1 76.2 193 75.9Q192.9 75.6 192.9 75.4Q192.9 75.1 193.1 74.9Q193 74.7 193 74.6Q193 74.5 193.1 74.3Q193.1 74.1 193.2 73.9Q193.3 73.7 193.4 73.5Q193.5 73.3 193.6 73.3Q193.7 73.3 193.7 73.3Q193.8 73.2 193.8 73.2Q193.8 73.1 193.8 73Q193.9 73 193.9 73Q194 73 194.1 72.9Q194.2 72.9 194.2 72.9Q194.4 72.8 194.6 72.7Q194.8 72.7 194.9 72.6Q195.1 72.6 195.3 72.5Q195.5 72.5 195.7 72.5Q195.8 72.5 196 72.6Q196.1 72.6 196.2 72.6Q196.3 72.7 196.4 72.7Q196.5 72.8 196.6 72.9H196.6Q196.7 72.9 196.7 72.9Q196.8 73 196.9 73Q197 73.1 197.1 73.1Q197.2 73.2 197.3 73.3Q197.4 73.4 197.5 73.5Q197.6 73.6 197.6 73.7Q197.6 73.8 197.6 73.8Q197.6 73.8 197.6 73.8L197.6 73.8Q197.6 73.8 197.6 73.9Q197.7 73.9 197.7 73.9Q197.7 74 197.7 74Q197.7 74.1 197.7 74.1Q197.8 74.2 197.8 74.2Q197.9 74.3 198 74.3Q197.9 74.4 197.9 74.5Q197.9 74.6 197.9 74.7Q198 74.8 198 74.8Q198 74.9 198 75Q198 75.1 198 75.3Q198 75.3 197.9 75.4Q197.8 75.4 197.8 75.5Q197.7 75.5 197.6 75.5Q197.6 75.6 197.6 75.6Q197.6 75.7 197.5 75.7Q197.5 75.6 197.4 75.6Q197.2 75.6 197 75.6Q196.7 75.5 196.5 75.5Q196.2 75.5 196 75.6Q195.8 75.6 195.5 75.6Q195.3 75.6 195.1 75.6Q194.9 75.6 194.8 75.6Q194.7 75.6 194.6 75.6Q194.4 75.6 194.3 75.6Q194.1 75.7 194 75.7Q193.9 75.8 193.8 75.8Q193.8 75.8 193.8 75.9Q193.8 76.1 194 76.4Q194.1 76.7 194.4 76.9Q194.6 77.1 194.9 77.2Q195.2 77.4 195.5 77.4Q195.7 77.4 195.9 77.4Q196 77.4 196.2 77.5Q196.3 77.4 196.5 77.3Q196.6 77.2 196.7 77.1Q196.8 77 196.9 76.9Q197 76.8 197.1 76.7Q197.2 76.7 197.2 76.7Q197.3 76.6 197.4 76.6Q197.5 76.6 197.6 76.6Q197.7 76.6 197.7 76.6Q197.8 76.6 198 76.6Q198 76.8 198 76.9ZM197.2 74.7Q197.2 74.6 197.2 74.5Q197.1 74.5 197.1 74.4Q197.1 74.2 197.1 74.1Q197.1 74 197 73.8H197Q197 73.8 197 73.9Q197 73.9 197 73.9Q196.9 73.9 196.8 73.9Q196.8 73.8 196.7 73.8Q196.5 73.7 196.4 73.6Q196.2 73.5 196 73.5Q195.9 73.4 195.7 73.4Q195.5 73.3 195.3 73.3Q195.2 73.3 195.2 73.3Q195.2 73.3 195.2 73.4L195.2 73.4L195.2 73.4Q195 73.5 194.9 73.5Q194.8 73.5 194.8 73.5Q194.7 73.6 194.6 73.7Q194.5 73.7 194.4 73.8Q194.4 73.9 194.3 73.9Q194.2 73.9 194.2 73.9Q194.1 73.9 194.1 74Q194 74 194 74Q193.9 74.2 193.9 74.3Q193.8 74.4 193.8 74.6Q193.8 74.6 193.9 74.7Q193.9 74.8 194 74.8Q194.1 74.9 194.3 74.9Q194.4 74.9 194.5 74.9Q194.6 74.9 194.7 75Q194.8 75 194.9 75Q195.1 75 195.3 74.9Q195.5 74.9 195.7 74.9Q195.9 74.9 196.1 74.9Q196.3 74.9 196.5 74.9Q196.6 74.9 196.7 74.9Q196.8 74.9 196.9 74.9Q197 74.9 197.1 74.8Q197.2 74.8 197.2 74.7Z M205.2 77.9Q205.2 77.9 205.1 78Q205.1 78 205.1 78.1Q205 78.1 204.9 78.1Q204.9 78.1 204.8 78.1Q204.7 78.1 204.6 78.1Q204.6 78.1 204.5 78.1Q204.4 78.1 204.2 78.1Q204.1 78.2 204 78.2Q203.9 78.2 203.9 78.2Q203.9 78.2 203.8 78.2Q203.7 78.2 203.7 78.2Q203.6 78.2 203.5 78.2Q203.3 78.2 203.2 78.2Q203 78.2 202.9 78.1Q202.6 78.1 202.5 77.9Q202.3 77.8 202.3 77.5Q202.5 77.4 202.7 77.4Q202.9 77.4 203.1 77.4Q203.2 77.4 203.3 77.4Q203.4 77.4 203.5 77.4Q203.5 77 203.4 76.6Q203.4 76.2 203.4 75.8Q203.4 75.6 203.4 75.5Q203.4 75.3 203.4 75.2Q203.4 75.1 203.5 74.9Q203.5 74.8 203.5 74.6Q203.5 74.6 203.5 74.5Q203.5 74.4 203.4 74.3Q203.4 74.3 203.4 74.2Q203.4 74.1 203.3 74Q203.3 73.9 203.3 73.8Q203.3 73.8 203.2 73.7Q203.1 73.6 203 73.6Q202.9 73.6 202.7 73.6Q202.6 73.6 202.5 73.6Q202.3 73.6 202.2 73.6Q202.1 73.7 202 73.7Q201.8 73.7 201.8 73.8Q201.8 73.8 201.7 73.9Q201.7 73.9 201.6 74Q201.6 74 201.6 74Q201.5 74.1 201.5 74.1Q201.4 74.1 201.4 74.1Q201.3 74.1 201.3 74.2Q201.3 74.2 201.3 74.2Q201.2 74.3 201.2 74.3Q201.2 74.4 201.2 74.4Q201.1 74.5 201.1 74.5Q201.1 74.5 201.1 74.5Q201 74.4 201 74.4Q201 74.4 201 74.4Q201 74.5 201 74.5V74.6Q200.9 74.7 200.9 74.7Q200.9 74.7 200.8 74.7Q200.8 74.7 200.8 74.7Q200.8 74.7 200.8 74.8Q200.8 74.9 200.8 74.9Q200.8 75 200.7 75Q200.7 75.1 200.7 75.1Q200.6 75.2 200.6 75.2Q200.6 75.3 200.7 75.4Q200.7 75.5 200.7 75.6Q200.7 75.7 200.7 75.8Q200.7 75.8 200.6 75.8Q200.6 75.9 200.6 75.9Q200.6 76 200.6 76Q200.6 76.1 200.6 76.1Q200.6 76.2 200.7 76.3Q200.7 76.3 200.7 76.4Q200.7 76.5 200.7 76.6Q200.7 76.7 200.7 76.7Q200.7 76.8 200.7 76.9Q200.7 77 200.7 77.1Q200.8 77.2 200.8 77.2Q200.9 77.2 201 77.3Q201 77.3 201.1 77.3Q201.2 77.3 201.3 77.4Q201.3 77.4 201.4 77.5L201.5 77.5Q201.5 77.5 201.6 77.6Q201.6 77.7 201.6 77.8Q201.6 77.8 201.6 77.9Q201.6 77.9 201.6 78Q201.6 78.1 201.4 78.1Q201.3 78.2 201.1 78.2Q200.9 78.2 200.8 78.2Q200.6 78.3 200.5 78.3Q200.5 78.3 200.4 78.2Q200.2 78.2 200.1 78.2Q199.9 78.2 199.7 78.2Q199.5 78.2 199.4 78.2Q199.2 78.1 199.1 78.1Q199 78 199 78Q199 77.9 198.9 77.8Q198.9 77.8 198.9 77.7Q198.9 77.6 199 77.5Q199 77.5 199.1 77.4Q199.1 77.4 199.2 77.3Q199.3 77.3 199.4 77.3Q199.5 77.3 199.6 77.3Q199.7 77.3 199.8 77.2Q199.8 77.2 199.9 77Q199.9 76.9 199.9 76.6Q199.9 76.5 199.9 76.4Q199.9 76.4 199.9 76.3Q199.9 76.2 199.9 76.2Q199.8 76.1 199.8 76.1Q199.8 76.1 199.9 76Q199.9 76 199.9 75.9Q199.9 75.9 199.9 75.9Q200 75.8 200 75.7Q200 75.7 199.9 75.6Q199.9 75.5 199.9 75.4Q199.9 75.3 199.9 75.2Q199.9 75.2 199.9 75.1Q199.9 75 199.9 75Q199.9 74.9 199.9 74.9Q199.9 74.8 199.9 74.8Q199.9 74.7 199.9 74.6Q199.9 74.5 199.9 74.3Q199.9 74.2 199.8 74.1Q199.8 73.9 199.7 73.8Q199.6 73.7 199.5 73.7Q199.4 73.6 199.3 73.6Q199.2 73.6 199 73.5Q198.9 73.5 198.9 73.4Q198.8 73.3 198.8 73.1Q198.8 72.9 198.9 72.8Q199 72.8 199.1 72.7Q199.2 72.7 199.3 72.7Q199.5 72.7 199.6 72.7Q199.7 72.7 199.9 72.7Q200 72.8 200.2 72.8Q200.3 72.8 200.3 72.8Q200.4 72.9 200.4 72.9Q200.5 73 200.5 73.1Q200.6 73.1 200.6 73.2Q200.6 73.2 200.6 73.3Q200.6 73.4 200.6 73.5Q200.7 73.6 200.7 73.6Q200.7 73.7 200.8 73.7Q200.8 73.7 200.8 73.6Q200.8 73.6 200.8 73.6Q200.9 73.5 200.9 73.5Q201 73.4 201.1 73.4Q201.2 73.3 201.2 73.3Q201.3 73.2 201.3 73.2Q201.4 73.1 201.4 73.1Q201.4 73.1 201.4 73Q201.5 73 201.5 73Q201.5 72.9 201.6 72.9H201.6Q201.7 72.9 201.7 72.9Q201.8 72.8 201.9 72.8Q201.9 72.7 202.1 72.7Q202.2 72.6 202.4 72.6Q202.6 72.6 202.8 72.6Q203 72.6 203.2 72.7Q203.4 72.7 203.6 72.8Q203.7 72.9 203.8 73.1Q203.9 73.3 204 73.3Q204.1 73.4 204.1 73.5Q204.1 73.5 204.1 73.6Q204.2 73.7 204.2 73.9Q204.2 74 204.2 74Q204.2 74.1 204.2 74.2Q204.3 74.2 204.3 74.3Q204.3 74.4 204.3 74.5Q204.3 74.7 204.3 74.8Q204.3 75 204.3 75.2Q204.3 75.4 204.2 75.5Q204.2 75.6 204.2 75.7Q204.2 75.8 204.2 75.9Q204.2 75.9 204.2 76Q204.2 76.1 204.2 76.2Q204.2 76.3 204.2 76.4Q204.2 76.5 204.2 76.5Q204.3 76.6 204.3 76.7Q204.3 76.7 204.3 76.7Q204.2 76.8 204.2 76.8Q204.2 76.8 204.2 76.8Q204.2 76.9 204.2 76.9Q204.2 77 204.2 77.1Q204.2 77.2 204.3 77.2Q204.4 77.3 204.5 77.3Q204.5 77.4 204.6 77.4Q204.7 77.4 204.7 77.4Q204.8 77.3 204.8 77.3Q204.9 77.3 205 77.4Q205 77.4 205.1 77.5Q205.1 77.6 205.2 77.7Q205.2 77.8 205.2 77.9ZM204 75.8Q204 75.8 204 75.7Q204 75.7 203.9 75.7Q203.8 75.7 203.8 75.7Q203.8 75.8 203.8 75.8Q203.8 75.9 203.8 76Q203.8 76 203.9 76Q204 76 204 76Q204 75.9 204 75.8ZM204.1 76.9Q204.1 76.8 204.1 76.8Q204.1 76.8 204 76.8Q204 76.8 204 76.8Q204 76.9 203.9 76.9Q203.9 76.9 203.9 77Q203.9 77 203.9 77Q203.9 77.1 203.9 77.1Q203.9 77.1 203.9 77.2Q204 77.1 204 77.1Q204 77.1 204 77Q204.1 77 204.1 76.9Q204.1 76.9 204.1 76.9ZM200.5 75.7Q200.5 75.7 200.5 75.6Q200.5 75.6 200.5 75.5Q200.5 75.5 200.4 75.4Q200.4 75.4 200.3 75.4Q200.3 75.4 200.2 75.4Q200.2 75.5 200.1 75.5H200.1Q200.1 75.5 200.1 75.6L200.1 75.6L200.1 75.6Q200.1 75.7 200.2 75.7Q200.2 75.7 200.3 75.7Q200.3 75.8 200.4 75.8Q200.5 75.8 200.5 75.8Q200.5 75.8 200.5 75.7Z" fill="#6b655c"/><path d="M246.3 30.6Q246.3 30.7 246.3 30.8Q246.3 30.8 246.3 30.9Q246.3 30.9 246.3 31Q246.3 31 246.3 31.1Q246.3 31.1 246.3 31.2Q246.3 31.3 246.3 31.4Q246.3 31.5 246.2 31.5Q246.2 31.6 246.2 31.7H246.1Q246 31.8 246 31.9Q245.8 32 245.7 32Q245.5 32 245.4 32Q245.3 32 245.2 32Q245.2 32 245.1 32Q244.9 32 244.8 32Q244.7 32 244.5 32.1Q244.5 32.1 244.4 32.1Q244.3 32.1 244.3 32.1Q244.2 32.1 244.1 32.1Q244 32 243.9 32Q243.8 32 243.7 32Q243.6 32 243.4 32Q243.3 32 243.2 32Q243.1 32 243 32Q242.9 32 242.8 32Q242.7 32 242.6 32Q242.5 32.1 242.4 32.1Q242.3 32.1 242.3 32Q242.2 32 242.1 32Q241.9 32 241.8 32.1Q241.6 32.1 241.5 32.1Q241.3 32.1 241.1 32Q241 31.9 241 31.7Q241 31.6 241 31.5Q241.1 31.3 241.3 31.2Q241.4 31.1 241.5 31.1Q241.6 31 241.7 31Q241.8 31 241.9 31Q241.9 30.9 242 30.8Q242 30.7 242 30.4Q242 30.1 242 29.9Q241.9 29.6 241.9 29.3Q241.9 29.1 242 29Q242 28.9 242 28.7Q242 28.5 242 28.3Q241.9 28 241.9 27.8Q241.9 27.6 241.9 27.5Q241.9 27.3 241.9 27.1Q241.9 27 241.9 26.9Q241.9 26.8 241.9 26.8Q241.9 26.6 241.9 26.5Q241.9 26.3 241.9 26.2Q241.9 26.1 241.8 26Q241.8 26 241.8 25.9Q241.7 25.8 241.7 25.8Q241.6 25.8 241.5 25.8Q241.4 25.8 241.4 25.8Q241.3 25.8 241.2 25.8Q241.1 25.8 241.1 25.8Q241 25.8 241 25.8Q240.9 25.8 240.9 25.7Q240.9 25.7 240.9 25.6Q240.9 25.6 240.8 25.6Q240.8 25.5 240.8 25.5Q240.8 25.5 240.9 25.3Q240.9 25.2 241 25.1Q241 25 241.1 24.9Q241.2 24.8 241.3 24.8Q241.4 24.8 241.5 24.9Q241.5 24.9 241.6 24.9Q241.7 24.9 241.9 24.9Q242 24.8 242.1 24.8Q242.2 24.8 242.3 24.9Q242.3 24.9 242.4 24.9Q242.5 24.9 242.5 24.9Q242.6 24.9 242.6 24.9Q242.8 24.9 242.9 24.9Q243 24.8 243.2 24.8Q243.3 24.8 243.4 24.9Q243.5 24.9 243.6 24.9Q243.7 25 243.8 25Q243.9 25.1 244 25.1Q244 25.1 244 25.2Q244 25.2 244 25.2V25.2L244 25.2Q244 25.3 244 25.4Q244 25.5 244 25.6Q243.9 25.7 243.9 25.7Q243.8 25.8 243.7 25.8Q243.7 25.8 243.6 25.8Q243.6 25.8 243.6 25.8Q243.4 25.8 243.2 25.8Q243 25.8 242.9 25.9Q242.8 26 242.8 26.1Q242.8 26.2 242.8 26.3Q242.8 26.3 242.9 26.4Q242.8 26.4 242.8 26.4Q242.7 26.4 242.7 26.4Q242.6 26.4 242.6 26.4Q242.6 26.5 242.6 26.5Q242.6 26.6 242.6 26.6Q242.6 26.6 242.6 26.6Q242.7 26.6 242.7 26.6Q242.8 26.6 242.8 26.6L242.8 26.7Q242.8 26.9 242.7 27.1Q242.7 27.3 242.7 27.4Q242.7 27.5 242.7 27.6Q242.7 27.6 242.7 27.7Q242.7 27.7 242.7 27.7Q242.7 27.8 242.6 27.8Q242.6 27.8 242.5 27.8Q242.5 27.8 242.5 27.8Q242.5 27.8 242.5 27.8Q242.5 27.9 242.5 27.9Q242.5 27.9 242.5 27.9Q242.5 28 242.6 28Q242.6 28 242.7 28Q242.7 28 242.7 28Q242.7 28.1 242.7 28.1Q242.7 28.2 242.7 28.2Q242.7 28.3 242.7 28.5Q242.8 28.6 242.8 28.7Q242.8 28.8 242.7 28.9Q242.7 29.1 242.7 29.2Q242.7 29.3 242.7 29.3Q242.8 29.4 242.8 29.5Q242.8 29.5 242.8 29.6Q242.9 29.7 242.9 29.7Q242.9 29.9 242.8 29.9Q242.8 30 242.8 30.1Q242.8 30.2 242.8 30.2Q242.8 30.3 242.8 30.5Q242.8 30.6 242.9 30.8Q242.9 30.9 243 31Q243.1 31.1 243.3 31.1Q243.4 31.1 243.6 31.1Q243.7 31 243.9 31Q244 31 244 31Q244.1 31.1 244.2 31.1Q244.3 31.1 244.4 31.1Q244.5 31.2 244.6 31.2Q244.7 31.2 244.9 31.1Q245 31.1 245.2 31.1Q245.4 31 245.5 30.9Q245.6 30.8 245.6 30.6Q245.6 30.4 245.5 30.2Q245.5 30 245.5 29.8Q245.5 29.6 245.5 29.5Q245.6 29.4 245.6 29.3Q245.8 29.2 245.9 29.2Q246.1 29.2 246.2 29.4Q246.3 29.5 246.3 29.7Q246.3 29.8 246.2 29.8Q246.2 29.9 246.2 29.9Q246.2 29.9 246.2 29.9Q246.2 29.9 246.3 30Q246.3 30 246.3 30Q246.3 30.1 246.3 30.1Q246.3 30.1 246.3 30.1Q246.3 30.2 246.3 30.3Q246.3 30.3 246.3 30.4Q246.3 30.5 246.3 30.6Q246.3 30.6 246.3 30.7Z M253.2 25.5Q253.2 25.6 253.2 25.6Q253.2 25.7 253.1 25.7Q253.1 25.8 253 25.8Q253 25.8 252.9 25.9Q252.8 25.9 252.7 25.9Q252.6 25.9 252.6 25.9Q252.5 25.9 252.4 25.9Q252.4 25.9 252.4 25.9Q252.3 25.9 252.2 25.9Q252.2 26 252.1 26Q252.1 26 252 25.9Q251.9 25.9 251.9 25.8L252 25.8Q251.9 25.8 251.9 25.8Q251.9 25.9 251.9 25.9Q251.9 25.9 251.9 26Q251.9 26 251.8 26Q251.8 26.1 251.8 26.1Q251.7 26.1 251.7 26.1Q251.6 26.2 251.6 26.3Q251.5 26.4 251.5 26.6Q251.5 26.7 251.5 26.7Q251.6 26.8 251.6 26.9Q251.6 27.1 251.5 27.3Q251.5 27.4 251.5 27.6Q251.5 27.7 251.5 27.8Q251.4 27.9 251.4 28Q251.4 28.2 251.6 28.2Q251.5 28.3 251.5 28.3Q251.5 28.4 251.5 28.5Q251.5 28.5 251.5 28.6Q251.5 28.7 251.5 28.7Q251.5 28.7 251.5 28.8Q251.5 28.8 251.5 28.8Q251.5 28.9 251.5 28.9Q251.5 28.9 251.5 28.9Q251.5 29 251.5 29Q251.5 29.1 251.5 29.2Q251.5 29.2 251.5 29.3Q251.5 29.5 251.5 29.7Q251.6 30 251.6 30.2Q251.6 30.4 251.5 30.5Q251.5 30.7 251.5 30.8Q251.5 31 251.5 31.1Q251.6 31.2 251.7 31.2Q251.8 31.2 251.9 31.3Q252 31.3 252.1 31.3Q252.3 31.3 252.5 31.2Q252.6 31.2 252.8 31.2Q253 31.2 253.1 31.3Q253.2 31.4 253.2 31.6Q253.2 31.7 253.2 31.9Q253.1 32 253 32.1Q253 32.1 252.9 32.2Q252.7 32.2 252.6 32.2Q252.5 32.2 252.4 32.2Q252.2 32.2 252 32.2Q251.8 32.1 251.6 32.1Q251.4 32.1 251.3 32.1Q251.1 32.2 250.9 32.2Q250.7 32.2 250.5 32.1Q250.3 32.1 250.1 32.1Q250 32.1 250 32.1Q249.9 32.1 249.8 32.1Q249.8 32.1 249.7 32.1Q249.7 32.1 249.6 32.1Q249.5 32.2 249.4 32.2Q249.4 32.2 249.3 32.2Q249.1 32.2 249 32.1Q248.8 32 248.8 31.8Q248.8 31.8 248.8 31.7Q248.9 31.7 248.9 31.6Q248.9 31.5 249 31.4Q249 31.4 249.1 31.3Q249.2 31.3 249.2 31.3Q249.3 31.3 249.3 31.3Q249.3 31.3 249.4 31.3Q249.4 31.4 249.5 31.4Q249.5 31.4 249.6 31.4Q249.8 31.4 250 31.4Q250.2 31.3 250.4 31.2Q250.5 31.2 250.6 31Q250.7 30.9 250.7 30.7Q250.7 30.6 250.7 30.5Q250.7 30.4 250.7 30.4Q250.7 30.1 250.7 29.8Q250.6 29.6 250.6 29.3Q250.6 29.2 250.7 29Q250.7 28.8 250.7 28.7Q250.7 28.6 250.7 28.5Q250.7 28.4 250.7 28.3Q250.7 28.3 250.7 28.2Q250.7 28.2 250.7 28.1Q250.7 28 250.7 27.9Q250.6 27.8 250.6 27.7Q250.6 27.5 250.7 27.4Q250.7 27.2 250.7 27Q250.7 26.9 250.7 26.8Q250.7 26.7 250.6 26.6Q250.6 26.5 250.6 26.4Q250.6 26.3 250.6 26.2Q250.6 26.2 250.6 26.1Q250.6 26 250.5 26Q250.4 25.9 250.4 25.9Q250.3 25.9 250.3 25.8Q250.2 25.8 250.2 25.7Q250.1 25.7 250.1 25.8Q250.1 25.8 250.1 25.8Q250.1 25.9 250.1 25.9Q250.1 25.9 250 25.9Q249.9 26 249.8 26Q249.6 26 249.5 26Q249.4 26 249.3 26Q249.2 26 249.1 25.9Q249 25.9 248.9 25.8Q248.8 25.8 248.8 25.7Q248.8 25.6 248.8 25.5Q248.9 25.4 248.9 25.4Q249 25.3 249 25.2Q249.1 25.2 249.1 25.1Q249.2 25.1 249.2 25Q249.3 25 249.4 25Q249.5 25 249.6 25Q249.7 25 249.8 25Q249.9 25 250 25Q250.1 25 250.2 25Q250.3 25 250.5 25Q250.6 25 250.8 25Q251 25 251.1 24.9Q251.2 24.9 251.2 24.9Q251.2 24.9 251.3 24.9Q251.3 25 251.4 25Q251.4 25 251.5 25.1Q251.5 25.1 251.5 25.1Q251.6 25.1 251.6 25.1Q251.6 25 251.6 25Q251.6 25 251.6 25Q251.6 24.9 251.6 24.9H251.7Q251.8 24.9 251.8 25Q251.8 25 251.8 25.1Q251.8 25.1 251.8 25.1Q251.8 25.2 251.8 25.2Q251.9 25.2 251.9 25.1Q251.9 25.1 251.9 25.1Q252 25 252 25Q252 25 252.1 25Q252.1 25 252.1 25H252.1Q252.3 25.1 252.3 25.1Q252.4 25.2 252.4 25.2Q252.4 25.2 252.5 25.2Q252.5 25.2 252.5 25.2Q252.5 25.2 252.5 25.2Q252.5 25.2 252.5 25.2Q252.5 25.2 252.5 25.2Q252.5 25.2 252.5 25.1Q252.4 25.1 252.4 25.1Q252.4 25.1 252.4 25Q252.5 25 252.5 25Q252.5 25 252.5 25Q252.6 25 252.6 24.9Q252.6 24.9 252.7 24.9Q252.7 24.9 252.8 24.9Q252.8 25 252.8 25Q252.8 25 252.9 25Q252.9 25 252.9 25Q252.9 25 253 25Q253 25 253 25Q253 25 253 25.1Q253.1 25.1 253.1 25.1Q253.1 25.2 253.1 25.2Q253.1 25.3 253.1 25.3Q253.1 25.3 253.1 25.4Q253.2 25.4 253.2 25.5Q253.2 25.5 253.2 25.5ZM250.8 25.9Q250.8 25.8 250.8 25.8Q250.7 25.7 250.7 25.7Q250.6 25.7 250.6 25.8Q250.6 25.8 250.6 25.9Q250.6 25.9 250.6 25.9Q250.6 26 250.6 26Q250.7 26 250.7 26Q250.7 26 250.8 26Q250.8 25.9 250.8 25.9Q250.8 25.9 250.8 25.9Z M261.6 25.2Q261.6 25.4 261.6 25.5Q261.5 25.6 261.4 25.6Q261.3 25.7 261.2 25.7Q261.1 25.8 261 25.8Q260.9 25.8 260.7 25.9Q260.6 26 260.5 26.1Q260.5 26.2 260.4 26.3Q260.4 26.5 260.3 26.6Q260.3 26.7 260.3 26.9Q260.2 27 260.1 27.1Q260.1 27.2 260.1 27.2Q260.1 27.2 260.1 27.3Q260.1 27.3 260.1 27.4Q260.1 27.4 260.1 27.5Q260.1 27.5 260.1 27.7Q260.1 27.8 260 27.9Q260 28.1 260 28.2Q259.9 28.4 259.9 28.5Q259.8 28.7 259.8 28.8Q259.7 28.9 259.7 28.9Q259.8 29.1 259.8 29.3Q259.8 29.5 259.7 29.6Q259.7 29.6 259.7 29.6Q259.7 29.7 259.7 29.7Q259.6 29.7 259.6 29.8Q259.6 30 259.5 30.1Q259.4 30.3 259.4 30.5Q259.4 30.6 259.4 30.7Q259.4 30.8 259.3 30.9Q259.3 31 259.2 31Q259.2 31.1 259.1 31.1Q259.1 31.1 259.1 31.2Q259.2 31.2 259.2 31.3Q259.2 31.3 259.2 31.4Q259.3 31.4 259.3 31.5Q259.3 31.5 259.2 31.5Q259.2 31.6 259.2 31.7Q259.1 31.8 259.1 31.9Q259 32 259 32Q258.9 32 258.9 32Q258.8 32.1 258.8 32.1Q258.7 32.1 258.6 32.1Q258.6 32.1 258.5 32.1Q258.5 32.1 258.4 32.1Q258.3 32.1 258.3 32.1Q258.2 32 258.1 32Q258 31.9 258 31.9Q258 31.9 257.9 31.8Q257.9 31.7 257.8 31.5Q257.8 31.4 257.8 31.2Q257.7 31.1 257.7 31Q257.6 30.9 257.6 30.7Q257.5 30.5 257.5 30.3Q257.5 30.3 257.4 30.2Q257.4 30.1 257.4 30.1V30Q257.4 29.9 257.4 29.9Q257.4 29.8 257.4 29.7Q257.4 29.7 257.4 29.6Q257.4 29.5 257.3 29.3Q257.3 29.1 257.2 28.9Q257.2 28.8 257.1 28.7Q257.1 28.6 257.1 28.5Q257 28.4 257 28.3Q257 28.2 257 28.2Q257 28 257 27.9Q257 27.8 256.9 27.7Q256.9 27.5 256.9 27.4Q256.8 27.2 256.8 27.1Q256.8 26.9 256.8 26.7Q256.7 26.6 256.7 26.4Q256.7 26.2 256.5 26.1Q256.5 26 256.4 25.9Q256.3 25.9 256.3 25.8Q256.2 25.8 256.1 25.8Q256 25.8 255.9 25.8Q255.8 25.8 255.6 25.7Q255.5 25.6 255.5 25.4Q255.5 25.3 255.6 25.2Q255.6 25.2 255.7 25.1Q255.8 25.1 255.9 25.1Q256.1 25.1 256.2 25Q256.3 25 256.4 25Q256.5 25 256.5 25Q256.6 25 256.7 24.9Q256.8 24.9 256.8 24.9Q257 24.9 257 24.9Q257.1 25 257.2 25Q257.4 25 257.5 25Q257.6 25 257.7 25Q257.8 25.1 257.8 25.1Q257.9 25.2 258 25.3Q258 25.4 258 25.5Q258 25.6 257.9 25.6Q257.9 25.7 257.8 25.8Q257.7 25.8 257.6 25.9Q257.5 25.9 257.5 25.9L257.5 26Q257.5 26.1 257.4 26.2Q257.4 26.2 257.3 26.3Q257.4 26.3 257.4 26.4Q257.4 26.5 257.4 26.6Q257.4 26.7 257.5 26.8Q257.5 26.9 257.5 27Q257.6 27.1 257.6 27.2Q257.7 27.3 257.7 27.4V27.6Q257.7 27.7 257.7 27.8Q257.7 27.9 257.7 27.9Q257.7 28 257.7 28Q257.8 28.1 257.8 28.1Q257.8 28.2 257.7 28.2Q257.7 28.2 257.7 28.2Q257.7 28.4 257.8 28.5Q257.8 28.6 257.9 28.7Q257.9 28.8 257.9 28.8Q257.9 28.8 257.9 28.8Q257.9 28.9 257.9 29Q258 29.1 258 29.1Q258 29.2 258 29.3Q258 29.4 258.1 29.4L258.1 29.4V29.5Q258.1 29.5 258 29.6Q258 29.6 258 29.7Q258 29.7 258 29.8Q258.1 29.9 258.1 29.9Q258.2 30 258.2 30Q258.3 30.1 258.3 30.1H258.3Q258.4 30.1 258.5 30.1Q258.6 30 258.6 30Q258.7 29.9 258.7 29.8Q258.7 29.7 258.7 29.6Q258.8 29.6 258.8 29.4Q258.8 29.3 258.8 29.1Q258.9 29 258.9 28.8Q259 28.7 259 28.7H259.1Q259 28.7 259 28.6Q259 28.6 259 28.6Q258.9 28.5 258.9 28.5Q258.9 28.4 258.9 28.4Q258.9 28.4 258.9 28.3Q258.9 28.3 258.9 28.3Q259 28.1 259 28Q259.1 27.9 259.1 27.9Q259.1 27.8 259.1 27.7Q259.2 27.6 259.2 27.4Q259.2 27.4 259.2 27.3Q259.2 27.2 259.3 27.1Q259.4 27 259.4 26.8Q259.5 26.7 259.5 26.7V26.7Q259.5 26.7 259.5 26.7Q259.5 26.7 259.5 26.6Q259.5 26.6 259.5 26.6Q259.5 26.5 259.5 26.5Q259.5 26.4 259.5 26.4Q259.5 26.3 259.5 26.3Q259.5 26.2 259.5 26.1Q259.5 26.1 259.4 26Q259.4 26 259.3 25.9Q259.2 25.8 259.2 25.8H259.1Q259 25.7 259 25.7Q258.9 25.6 258.9 25.5Q258.9 25.5 258.8 25.5Q258.8 25.4 258.8 25.4Q258.8 25.3 258.8 25.3Q258.9 25.2 258.9 25.1Q258.9 25.1 258.9 25Q258.9 25 259 25Q259 24.9 259 24.9Q259.1 24.9 259.1 24.9Q259.2 24.9 259.3 24.9Q259.3 24.9 259.4 24.9Q259.4 24.9 259.5 24.9Q259.5 24.9 259.6 24.9Q259.7 24.8 259.8 24.8Q259.9 24.8 260 24.8Q260.1 24.7 260.2 24.7Q260.3 24.7 260.4 24.8Q260.5 24.8 260.6 24.8Q260.6 24.8 260.7 24.8Q260.7 24.8 260.8 24.8Q260.8 24.8 260.9 24.8Q261 24.9 261 24.9Q261.1 24.9 261.2 24.9Q261.2 25 261.3 25Q261.4 25 261.5 25Q261.6 25.1 261.6 25.1V25.2Z M269.5 27.1Q269.5 27.1 269.5 27.2Q269.4 27.3 269.4 27.3Q269.4 27.4 269.3 27.5Q269.3 27.5 269.3 27.5L269.3 27.5Q269.3 27.5 269.3 27.5H269.2Q269.2 27.6 269.2 27.6Q269.2 27.6 269.2 27.6L269.2 27.5Q269.1 27.5 269 27.5Q268.9 27.5 268.8 27.4Q268.8 27.3 268.8 27.3Q268.8 27.2 268.8 27.2Q268.7 27.1 268.7 27.1Q268.7 27 268.7 27Q268.7 27 268.7 26.9Q268.7 26.9 268.7 26.8Q268.7 26.7 268.7 26.5Q268.7 26.4 268.7 26.2Q268.7 26.1 268.7 26Q268.7 26 268.8 25.9H268.8Q268.7 25.9 268.7 25.8Q268.6 25.8 268.6 25.8Q268.4 25.8 268.2 25.8Q268 25.9 267.8 25.9Q267.7 25.9 267.7 25.9Q267.6 25.9 267.5 25.9Q267.4 25.9 267.2 25.9Q267.1 26 266.9 26Q266.9 26 266.9 26Q266.9 25.9 266.9 25.9Q267 25.9 267 25.9Q267 25.9 266.9 25.9Q266.9 25.9 266.9 25.9Q266.9 25.9 266.8 25.9Q266.8 26 266.8 26Q266.7 26 266.6 26Q266.5 26 266.4 26Q266.4 26 266.3 26Q266.2 26 266.1 26Q266 25.9 265.9 25.9Q265.9 25.9 265.9 25.8Q265.8 25.8 265.8 25.9Q265.8 25.9 265.8 25.9Q265.7 26 265.7 26Q265.7 26 265.6 26Q265.5 26 265.4 26.1Q265.4 26.2 265.4 26.3Q265.4 26.4 265.4 26.4Q265.4 26.5 265.4 26.5Q265.4 26.7 265.4 26.9Q265.4 27.1 265.4 27.3Q265.4 27.4 265.4 27.5Q265.4 27.7 265.4 27.8Q265.4 27.9 265.5 28Q265.5 28.1 265.6 28.1Q265.6 28.2 265.7 28.2Q265.7 28.2 265.7 28.2Q265.9 28.2 266.1 28.1Q266.2 28.1 266.4 28.1Q266.5 28.1 266.5 28.1Q266.6 28.1 266.7 28.1Q266.8 28.1 266.8 28Q266.9 27.9 266.9 27.8Q266.9 27.7 266.9 27.6Q266.9 27.5 266.9 27.4Q266.9 27.3 266.9 27.2Q266.9 27 266.9 26.9H266.9Q267.1 26.9 267.2 27Q267.3 27 267.4 27Q267.4 27 267.5 27Q267.5 27.1 267.5 27.2Q267.5 27.3 267.5 27.4Q267.5 27.5 267.4 27.5Q267.4 27.6 267.5 27.7Q267.5 27.8 267.5 27.8Q267.5 27.9 267.5 27.9Q267.5 28 267.5 28Q267.5 28.1 267.5 28.1Q267.5 28.1 267.5 28.2Q267.5 28.2 267.5 28.3Q267.4 28.4 267.4 28.5Q267.4 28.6 267.5 28.7Q267.5 28.8 267.5 29Q267.5 29.1 267.5 29.2Q267.6 29.4 267.6 29.5Q267.6 29.6 267.6 29.6Q267.5 29.7 267.5 29.8Q267.5 29.9 267.4 29.9Q267.4 30 267.3 30.1Q267.2 30 267.2 30Q267.1 29.9 267.1 29.9Q267 29.8 267 29.7Q267 29.7 267 29.6Q266.9 29.4 266.9 29.3Q266.9 29.2 266.9 29.2Q266.9 29.1 266.7 29Q266.6 29 266.3 29Q266.2 29 266.1 29Q266 29 265.8 29.1Q265.7 29.1 265.6 29.2Q265.5 29.2 265.5 29.3Q265.5 29.4 265.5 29.4Q265.5 29.5 265.5 29.6Q265.5 29.6 265.5 29.7Q265.5 29.7 265.5 29.8Q265.5 29.9 265.5 30Q265.5 30.2 265.5 30.3Q265.5 30.4 265.5 30.6Q265.4 30.7 265.4 30.8Q265.4 31 265.5 31.1Q265.6 31.2 265.7 31.2Q265.8 31.3 266 31.3Q266.1 31.3 266.2 31.3Q266.4 31.3 266.7 31.3Q266.9 31.2 267.1 31.2Q267.3 31.2 267.4 31.3Q267.6 31.3 267.7 31.3Q267.8 31.3 268 31.3Q268.1 31.3 268.2 31.2Q268.4 31.2 268.5 31.1Q268.5 31 268.6 30.9Q268.6 30.8 268.6 30.8Q268.6 30.8 268.6 30.8Q268.7 30.8 268.7 30.8Q268.7 30.8 268.7 30.7Q268.7 30.7 268.7 30.6Q268.7 30.6 268.6 30.5Q268.6 30.4 268.6 30.4Q268.6 30.3 268.6 30.2Q268.6 30 268.7 29.9Q268.7 29.8 268.7 29.7Q268.7 29.6 268.7 29.6Q268.7 29.6 268.7 29.5Q268.7 29.5 268.8 29.5Q268.8 29.4 268.9 29.4Q268.9 29.4 269 29.4Q269 29.4 269.1 29.4Q269.2 29.4 269.3 29.4Q269.3 29.5 269.4 29.7Q269.4 29.8 269.4 29.9Q269.5 30 269.5 30.1Q269.5 30.3 269.4 30.5Q269.4 30.7 269.4 30.9Q269.3 31.1 269.3 31.3Q269.2 31.4 269.2 31.6Q269.1 31.6 269.1 31.7Q269.1 31.7 269 31.7Q269 31.8 269 31.8Q268.9 31.8 268.9 31.9Q268.9 31.9 268.7 31.9Q268.6 31.9 268.5 31.9Q268.4 31.9 268.3 31.9Q268.3 31.9 268.2 31.9Q268.1 31.9 268 32Q267.9 32 267.8 32Q267.7 32 267.7 32Q267.7 31.9 267.6 31.9Q267.6 31.9 267.6 32Q267.5 32 267.5 32Q267.4 32 267.4 32Q267.3 32 267.2 32Q266.9 32 266.5 32Q266.1 32 265.8 32Q265.5 32.1 265.3 32.1Q265 32.2 264.8 32.2Q264.7 32.2 264.6 32.1Q264.5 32.1 264.4 32.1Q264.3 32 264.2 32Q264.1 31.9 264.1 31.8Q264.1 31.7 264.2 31.6Q264.3 31.5 264.4 31.4Q264.5 31.3 264.6 31.2Q264.7 31.2 264.8 31.1Q264.8 31.1 264.8 31Q264.8 31 264.8 31Q264.8 30.9 264.8 30.8Q264.8 30.7 264.8 30.7Q264.9 30.6 264.9 30.6Q264.9 30.5 264.9 30.5Q264.9 30.4 264.9 30.4Q264.9 30.4 264.9 30.3Q264.8 30.2 264.8 30.1Q264.8 30 264.8 29.8Q264.8 29.8 264.8 29.7Q264.8 29.6 264.8 29.6Q264.8 29.5 264.8 29.4Q264.9 29.4 264.9 29.3Q264.9 29.3 264.8 29.2Q264.8 29.1 264.8 29.1L264.9 28.4Q264.9 28.4 264.9 28.3Q264.9 28.3 264.9 28.2Q264.9 28.2 264.9 28.2Q264.9 28 264.9 27.9Q264.8 27.8 264.8 27.7Q264.8 27.7 264.9 27.6Q264.9 27.6 264.9 27.5Q264.9 27.4 264.9 27.4Q265 27.3 265 27.2Q265 27.1 264.9 27.1Q264.9 27 264.9 27Q264.9 26.9 264.9 26.8Q265 26.8 265 26.7Q265 26.6 264.9 26.5Q264.9 26.4 264.8 26.4Q264.8 26.2 264.7 26.2Q264.7 26.1 264.7 26Q264.6 26 264.6 26Q264.5 26 264.3 25.9Q264.3 25.9 264.2 25.9Q264.1 25.9 264.1 25.8Q264.1 25.7 264 25.7Q264 25.6 264 25.5Q264 25.5 264.1 25.4Q264.2 25.3 264.3 25.3Q264.4 25.3 264.5 25.2Q264.7 25.2 264.8 25.2Q265 25.2 265.1 25.2Q265.2 25.2 265.3 25.2Q265.4 25.2 265.5 25.2Q265.6 25.1 265.7 25.1Q265.9 25.1 266.1 25.2Q266.2 25.2 266.4 25.2Q266.6 25.2 266.8 25.1Q267 25.1 267.2 25.1Q267.4 25.1 267.6 25.1Q267.8 25.2 268 25.2Q268.1 25.2 268.3 25.1Q268.5 25.1 268.6 25.1Q268.7 25.1 268.8 25.1Q268.9 25.2 269 25.3Q269.1 25.4 269.1 25.5Q269.2 25.5 269.2 25.7Q269.3 25.8 269.3 25.9Q269.3 26 269.3 26.1Q269.3 26.2 269.3 26.3Q269.3 26.4 269.3 26.4Q269.4 26.5 269.4 26.5Q269.4 26.6 269.3 26.6Q269.3 26.6 269.4 26.7Q269.4 26.8 269.4 26.9Q269.4 26.9 269.5 27Q269.5 27.1 269.5 27.1ZM265.3 28.3Q265.2 28.3 265.2 28.3Q265.2 28.3 265.2 28.4Q265.4 28.5 265.5 28.6Q265.6 28.7 265.6 28.7Q265.7 28.8 265.7 28.8Q265.8 28.8 265.8 28.7Q265.8 28.7 265.8 28.6Q265.7 28.5 265.6 28.4Q265.5 28.4 265.4 28.4Q265.3 28.3 265.3 28.3Z" fill="#0b3cbf"/>
  </g>
</svg>